<svg width="16" height="16" viewBox="0 0 16 16" fill="none" xmlns="http://www.w3.org/2000/svg">
<path d="M10.0159 1.88739H12.7359C12.8802 1.88739 13.0185 1.9447 13.1206 2.04672C13.2226 2.14874 13.2799 2.28711 13.2799 2.43139V13.8554C13.2799 13.9997 13.2226 14.138 13.1206 14.2401C13.0185 14.3421 12.8802 14.3994 12.7359 14.3994H2.9439C2.79962 14.3994 2.66126 14.3421 2.55924 14.2401C2.45722 14.138 2.3999 13.9997 2.3999 13.8554V2.43139C2.3999 2.28711 2.45722 2.14874 2.55924 2.04672C2.66126 1.9447 2.79962 1.88739 2.9439 1.88739H5.6639" fill="#E8FAF7"/>
<path d="M5.12012 4.06399V3.51999C5.12012 2.7986 5.40669 2.10676 5.91679 1.59666C6.42689 1.08656 7.11873 0.799988 7.84012 0.799988C8.56151 0.799988 9.25335 1.08656 9.76345 1.59666C10.2735 2.10676 10.5601 2.7986 10.5601 3.51999V4.06399H5.12012Z" fill="#006C63"/>
<path d="M5.66382 9.50421H10.0158" stroke="#006C63" stroke-linecap="round" stroke-linejoin="round"/>
<path d="M5.66382 7.32776H10.0158" stroke="#006C63" stroke-linecap="round" stroke-linejoin="round"/>
</svg>
