<svg width="14" height="16" viewBox="0 0 14 16" fill="none" xmlns="http://www.w3.org/2000/svg">
<path d="M1.3277 13.0146H8.01465C8.22951 13.0146 8.4029 13.1474 8.4029 13.3118V15.0401H0.939453V13.3118C0.939453 13.1474 1.11285 13.0146 1.3277 13.0146Z" fill="#005A54"/>
<path d="M7.50705 8.49895L8.58927 7.4037L13.6474 12.5227C13.786 12.6631 13.7879 12.893 13.6515 13.0311L13.0645 13.6252C12.9281 13.7632 12.7008 13.7613 12.5622 13.621L7.50409 8.50195L7.50705 8.49895Z" fill="#005A54"/>
<path d="M7.45802 2.55137L2.71112 7.35547L5.67312 10.3532L10.42 5.54906L7.45802 2.55137Z" fill="#005A54"/>
<path d="M1.94532 7.13987L1.4146 7.67699C1.26231 7.83111 1.25617 8.07478 1.40088 8.22124L4.81284 11.6743C4.95756 11.8208 5.19832 11.8146 5.35061 11.6604L5.88134 11.1233C6.03363 10.9692 6.03977 10.7255 5.89506 10.5791L2.48309 7.12599C2.33838 6.97953 2.09761 6.98575 1.94532 7.13987Z" fill="#005A54"/>
<path d="M7.78029 1.23948L7.24956 1.7766C7.09727 1.93072 7.09113 2.17439 7.23584 2.32085L10.6478 5.77392C10.7925 5.92038 11.0333 5.91416 11.1856 5.76004L11.7163 5.22292C11.8686 5.06879 11.8747 4.82513 11.73 4.67867L8.31805 1.2256C8.17334 1.07914 7.93257 1.08536 7.78029 1.23948Z" fill="#005A54"/>
</svg>
