<svg width="44" height="44" viewBox="0 0 44 44" fill="none" xmlns="http://www.w3.org/2000/svg">
<path fill-rule="evenodd" clip-rule="evenodd" d="M8.69922 9.0002C8.69922 7.72994 9.72896 6.7002 10.9992 6.7002H26.2677L35.1326 15.5651V34.6469C35.1326 35.9171 34.1028 36.9469 32.8326 36.9469H10.9992C9.72896 36.9469 8.69922 35.9171 8.69922 34.6469V9.0002ZM11.2992 9.3002V34.3469H32.5326V16.642L25.1907 9.3002H11.2992Z" fill="#484F54"/>
<path fill-rule="evenodd" clip-rule="evenodd" d="M26.5531 7.18066V15.1445H34.6565V17.7445H26.2531C24.9829 17.7445 23.9531 16.7148 23.9531 15.4445V7.18066H26.5531Z" fill="#484F54"/>
<path fill-rule="evenodd" clip-rule="evenodd" d="M16.3242 26.7236H27.5042V29.3236H16.3242V26.7236Z" fill="#484F54"/>
<path fill-rule="evenodd" clip-rule="evenodd" d="M16.3242 21.001H27.5042V23.601H16.3242V21.001Z" fill="#484F54"/>
</svg>
