<svg width="44" height="44" viewBox="0 0 44 44" fill="none" xmlns="http://www.w3.org/2000/svg">
<path fill-rule="evenodd" clip-rule="evenodd" d="M20.7018 15.3975H23.3018V20.9366H35.2185V29.2063H32.6185V23.5366H11.3852V31.7028H8.78516V20.9366H20.7018V15.3975Z" fill="#484F54"/>
<path d="M6 31.7354C6 29.5262 7.79086 27.7354 10 27.7354C12.2091 27.7354 14 29.5262 14 31.7354C14 33.9445 12.2091 35.7354 10 35.7354C7.79086 35.7354 6 33.9445 6 31.7354Z" fill="#484F54"/>
<path d="M30 31.7354C30 29.5262 31.7909 27.7354 34 27.7354C36.2091 27.7354 38 29.5262 38 31.7354C38 33.9445 36.2091 35.7354 34 35.7354C31.7909 35.7354 30 33.9445 30 31.7354Z" fill="#484F54"/>
<path d="M18 12C18 9.79086 19.7909 8 22 8C24.2091 8 26 9.79086 26 12C26 14.2091 24.2091 16 22 16C19.7909 16 18 14.2091 18 12Z" fill="#484F54"/>
</svg>
