<svg width="44" height="44" viewBox="0 0 44 44" fill="none" xmlns="http://www.w3.org/2000/svg">
<path fill-rule="evenodd" clip-rule="evenodd" d="M26.272 12.3816L22.3846 9.67001L18.4972 12.3816H10.6V19.4951C10.6 23.0436 11.8073 26.5024 14.0492 29.3346C16.1552 31.995 19.0661 33.9648 22.3846 34.9667C25.7031 33.9648 28.614 31.995 30.72 29.3346C32.9619 26.5024 34.1692 23.0436 34.1692 19.4951V12.3816H26.272ZM36.7692 9.78157V19.4951C36.7692 23.6368 35.3595 27.6627 32.7586 30.9483C30.2546 34.1115 26.7814 36.4183 22.8438 37.5416C22.5437 37.6272 22.2255 37.6272 21.9254 37.5416C17.9878 36.4183 14.5146 34.1115 12.0107 30.9483C9.40978 27.6627 7.99999 23.6368 8 19.4951V9.78157H17.68L22.3846 6.5L27.0892 9.78157H36.7692Z" fill="#484F54"/>
<path fill-rule="evenodd" clip-rule="evenodd" d="M16.4492 20.8271H28.0492V23.4271H16.4492V20.8271Z" fill="#484F54"/>
<path fill-rule="evenodd" clip-rule="evenodd" d="M20.9492 27.9268L20.9492 16.3268L23.5492 16.3268L23.5492 27.9268L20.9492 27.9268Z" fill="#484F54"/>
</svg>
