<svg width="44" height="44" viewBox="0 0 44 44" fill="none" xmlns="http://www.w3.org/2000/svg">
<path fill-rule="evenodd" clip-rule="evenodd" d="M6.69922 34.7002H37.2992V37.3002H6.69922V34.7002Z" fill="#484F54"/>
<path fill-rule="evenodd" clip-rule="evenodd" d="M16.6992 24.0195H27.2992V37.0506H16.6992V24.0195ZM19.2992 26.6195V34.4506H24.6992V26.6195H19.2992Z" fill="#484F54"/>
<path d="M18 20C19.1046 20 20 19.1046 20 18C20 16.8954 19.1046 16 18 16C16.8954 16 16 16.8954 16 18C16 19.1046 16.8954 20 18 20Z" fill="#484F54"/>
<path d="M26 20C27.1046 20 28 19.1046 28 18C28 16.8954 27.1046 16 26 16C24.8954 16 24 16.8954 24 18C24 19.1046 24.8954 20 26 20Z" fill="#484F54"/>
<path fill-rule="evenodd" clip-rule="evenodd" d="M8.69922 10.0002C8.69922 8.72994 9.72896 7.7002 10.9992 7.7002H32.9992C34.2695 7.7002 35.2992 8.72994 35.2992 10.0002V37.0002H32.6992V10.3002H11.2992V37.0002H8.69922V10.0002Z" fill="#484F54"/>
</svg>
