<svg width="24" height="24" viewBox="0 0 24 24" fill="none" xmlns="http://www.w3.org/2000/svg">
<path d="M2.84055 3.20976C2.88279 2.6298 3.40907 2.20805 3.9843 2.29318L22.7254 5.06658L21.6504 10.8102L3.36175 10.8483C2.78002 10.8496 2.32004 10.3559 2.3623 9.7757L2.84055 3.20976Z" fill="#006C63"/>
<path fill-rule="evenodd" clip-rule="evenodd" d="M0.408142 6.00366C0.408142 5.45138 0.855857 5.00366 1.40814 5.00366H22.5919C23.1442 5.00366 23.5919 5.45138 23.5919 6.00366V11.3265C22.4279 11.3265 21.4843 12.2701 21.4843 13.4341C21.4843 14.5981 22.4279 15.5417 23.5919 15.5417V20.8646C23.5919 21.4169 23.1442 21.8646 22.5919 21.8646H1.40814C0.855859 21.8646 0.408142 21.4169 0.408142 20.8646V15.5417C1.57214 15.5417 2.51576 14.5981 2.51576 13.4341C2.51576 12.2701 1.57214 11.3265 0.408142 11.3265V6.00366Z" fill="#09AD97"/>
<path d="M10.0869 9.75964C10.4294 9.75964 10.7313 9.83221 10.9925 9.97733C11.2595 10.1225 11.4656 10.3227 11.6107 10.5781C11.7617 10.8336 11.8371 11.1209 11.8371 11.4402C11.8371 11.7594 11.7617 12.0468 11.6107 12.3022C11.4656 12.5518 11.2595 12.7492 10.9925 12.8943C10.7313 13.0394 10.4294 13.112 10.0869 13.112C9.75026 13.112 9.4484 13.0394 9.18137 12.8943C8.92015 12.7492 8.71407 12.5518 8.56314 12.3022C8.41802 12.0468 8.34546 11.7594 8.34546 11.4402C8.34546 11.1209 8.41802 10.8336 8.56314 10.5781C8.71407 10.3227 8.92015 10.1225 9.18137 9.97733C9.4484 9.83221 9.75026 9.75964 10.0869 9.75964ZM10.4439 16.9868H9.25103L13.953 9.89025H15.146L10.4439 16.9868ZM10.0869 10.7697C9.88957 10.7697 9.72704 10.8336 9.59933 10.9613C9.47742 11.089 9.41647 11.2486 9.41647 11.4402C9.41647 11.6317 9.47742 11.7914 9.59933 11.9191C9.72704 12.0468 9.88957 12.1106 10.0869 12.1106C10.2843 12.1106 10.4439 12.0468 10.5659 11.9191C10.6936 11.7914 10.7574 11.6317 10.7574 11.4402C10.7574 11.2486 10.6936 11.089 10.5659 10.9613C10.4439 10.8336 10.2843 10.7697 10.0869 10.7697ZM14.3013 13.7563C14.6438 13.7563 14.9457 13.8289 15.2069 13.974C15.4739 14.1192 15.68 14.3194 15.8251 14.5748C15.9761 14.8303 16.0515 15.1176 16.0515 15.4369C16.0515 15.7562 15.9761 16.0406 15.8251 16.2902C15.68 16.5456 15.4739 16.7459 15.2069 16.891C14.9457 17.0361 14.6438 17.1087 14.3013 17.1087C13.9646 17.1087 13.6628 17.0361 13.3958 16.891C13.1345 16.7459 12.9285 16.5456 12.7775 16.2902C12.6324 16.0406 12.5598 15.7562 12.5598 15.4369C12.5598 15.1176 12.6324 14.8303 12.7775 14.5748C12.9285 14.3194 13.1345 14.1192 13.3958 13.974C13.6628 13.8289 13.9646 13.7563 14.3013 13.7563ZM14.3013 14.7664C14.104 14.7664 13.9414 14.8303 13.8137 14.958C13.6918 15.0857 13.6309 15.2453 13.6309 15.4369C13.6309 15.6284 13.6918 15.7881 13.8137 15.9158C13.9414 16.0435 14.104 16.1074 14.3013 16.1074C14.4987 16.1074 14.6583 16.0435 14.7802 15.9158C14.9079 15.7881 14.9718 15.6284 14.9718 15.4369C14.9718 15.2453 14.9079 15.0857 14.7802 14.958C14.6583 14.8303 14.4987 14.7664 14.3013 14.7664Z" fill="white"/>
</svg>
