<svg width="30" height="26" viewBox="0 0 30 26" fill="none" xmlns="http://www.w3.org/2000/svg">
<path d="M21.8469 8.74304L13.076 17.5139L7.84717 12.2851" stroke="white" stroke-width="2"/>
<path d="M13.115 3.00555C13.8848 1.67222 15.8093 1.67222 16.5791 3.00555L27.5464 22.0016C28.3162 23.3349 27.354 25.0016 25.8144 25.0016H3.87963C2.34003 25.0016 1.37778 23.3349 2.14758 22.0016L13.115 3.00555Z" fill="#005A54"/>
<path d="M15.9877 10.0572H13.6917L13.8855 17.6162H15.7939L15.9877 10.0572ZM13.6022 19.7333C13.5873 20.4266 14.1539 20.9857 14.8546 20.9857C15.5181 20.9857 16.0921 20.4266 16.0921 19.7333C16.0921 19.0475 15.5181 18.4884 14.8546 18.4959C14.1539 18.4884 13.5873 19.0475 13.6022 19.7333Z" fill="white"/>
</svg>
