<svg width="33" height="32" viewBox="0 0 33 32" fill="none" xmlns="http://www.w3.org/2000/svg">
  <path d="M29.144 11H6.85596C6.38323 11 6 11.3575 6 11.7984V24.2016C6 24.6425 6.38323 25 6.85596 25H29.144C29.6168 25 30 24.6425 30 24.2016V11.7984C30 11.3575 29.6168 11 29.144 11Z" fill="#D9DCE0"/>
  <path d="M26.144 8H3.85596C3.38323 8 3 8.35745 3 8.79839V21.2016C3 21.6425 3.38323 22 3.85596 22H26.144C26.6168 22 27 21.6425 27 21.2016V8.79839C27 8.35745 26.6168 8 26.144 8Z" fill="#C1C6CC"/>
  <path d="M12.6481 18.0135L12.6583 18.05H12.6962H13.6867H13.7246L13.7349 18.0135L14.4525 15.4514H15.5507L16.2683 18.0135L16.2785 18.05H16.3165H17.307H17.3449L17.3551 18.0135L18.0727 15.4514H19H19.05V15.4014V14.6572V14.6072H19H18.3097L19.0386 12.0135L19.0565 11.95H18.9905H18.0348H17.9961L17.9864 11.9874L17.3063 14.6072H16.2534L15.5419 11.9869L15.5319 11.95H15.4937H14.5095H14.4713L14.4612 11.9869L13.7497 14.6072H12.6937L12.0136 11.9874L12.0039 11.95H11.9652H11.0095H10.9435L10.9614 12.0135L11.6903 14.6072H11H10.95V14.6572V15.4014V15.4514H11H11.9273L12.6481 18.0135ZM13.2093 16.5999L12.9127 15.4514H13.5201L13.2093 16.5999ZM15.0001 13.4925L15.3137 14.6072H14.6893L15.0001 13.4925ZM16.7924 16.597L16.483 15.4514H17.0904L16.7924 16.597Z" fill="#8A9299" stroke="#8A9299" stroke-width="0.1"/>
</svg>
