<svg width="24" height="24" viewBox="0 0 24 24" fill="none" xmlns="http://www.w3.org/2000/svg">
<g clip-path="url(#clip0_8_866)">
<path d="M3.99998 4.00001H20C20.2947 4.00001 21 3.99984 21.5 4.50001C22 5.00017 22 5.76426 22 6.00001V12L22 18C22 18.2358 22 19.0001 21.5 19.5C21 19.9999 20.2947 20 20 20H3.99998C3.44443 20 2.99952 20 2.49998 19.5C2.00043 19 2.0001 18.2358 2.0001 18V6.00001C2.0001 5.76426 2.0001 4.9998 2.5 4.50002C2.99991 4.00024 3.7053 4.00001 3.99998 4.00001ZM3.99998 6.00001V18H20C20 13.1401 20 6.00001 20 6.00001H3.99998Z" fill="black"/>
</g>
<defs>
<clipPath id="clip0_8_866">
<rect width="24" height="24" fill="white"/>
</clipPath>
</defs>
</svg>
