<svg width="50" height="50" viewBox="0 0 50 50" fill="none" xmlns="http://www.w3.org/2000/svg">
<path d="M5 9.375C5 10.41 5.84 11.25 6.875 11.25H43.125C43.6223 11.25 44.0992 11.0525 44.4508 10.7008C44.8025 10.3492 45 9.87228 45 9.375C45 8.87772 44.8025 8.40081 44.4508 8.04917C44.0992 7.69754 43.6223 7.5 43.125 7.5H6.875C6.37772 7.5 5.90081 7.69754 5.54917 8.04917C5.19754 8.40081 5 8.87772 5 9.375ZM5 29.375C5 30.41 5.84 31.25 6.875 31.25H43.125C43.3712 31.25 43.615 31.2015 43.8425 31.1073C44.07 31.013 44.2767 30.8749 44.4508 30.7008C44.6249 30.5267 44.763 30.32 44.8573 30.0925C44.9515 29.865 45 29.6212 45 29.375C45 29.1288 44.9515 28.885 44.8573 28.6575C44.763 28.43 44.6249 28.2233 44.4508 28.0492C44.2767 27.8751 44.07 27.737 43.8425 27.6427C43.615 27.5485 43.3712 27.5 43.125 27.5H6.875C6.37772 27.5 5.90081 27.6975 5.54917 28.0492C5.19754 28.4008 5 28.8777 5 29.375ZM5 39.375C5 40.41 5.84 41.25 6.875 41.25H31.6975C32.1948 41.25 32.6717 41.0525 33.0233 40.7008C33.375 40.3492 33.5725 39.8723 33.5725 39.375C33.5725 38.8777 33.375 38.4008 33.0233 38.0492C32.6717 37.6975 32.1948 37.5 31.6975 37.5H6.875C6.37772 37.5 5.90081 37.6975 5.54917 38.0492C5.19754 38.4008 5 38.8777 5 39.375ZM5 19.375C5 20.41 5.84 21.25 6.875 21.25H43.125C43.6223 21.25 44.0992 21.0525 44.4508 20.7008C44.8025 20.3492 45 19.8723 45 19.375C45 18.8777 44.8025 18.4008 44.4508 18.0492C44.0992 17.6975 43.6223 17.5 43.125 17.5H6.875C6.37772 17.5 5.90081 17.6975 5.54917 18.0492C5.19754 18.4008 5 18.8777 5 19.375V19.375Z" fill="black"/>
</svg>
