<svg width="32" height="32" viewBox="0 0 32 32" fill="none" xmlns="http://www.w3.org/2000/svg">
  <path d="M16 25.4346V28.2666H18.832L25.504 21.5946L22.672 18.7626L16 25.4346Z" fill="#7EDFD5"/>
  <path d="M23.2 9.06663L16.8 2.66663H6.4C5.072 2.66663 4 3.73863 4 5.06663V25.8666C4 27.1946 5.072 28.2666 6.4 28.2666H13.6V24.4426L23.2 14.8426V9.06663ZM15.2 10.6666V4.26663L21.6 10.6666H15.2Z" fill="#7EDFD5"/>
  <path d="M27.76 18.2026L26.064 16.5066C25.744 16.1866 25.248 16.1866 24.928 16.5066L23.792 17.6426L26.624 20.4746L27.76 19.3386C28.08 19.0186 28.08 18.5066 27.76 18.2026Z" fill="#7EDFD5"/>
</svg>
