<svg width="72" height="72" viewBox="0 0 72 72" fill="none" xmlns="http://www.w3.org/2000/svg">
<rect x="23.1602" y="6.29956" width="37.6093" height="52.653" rx="3.2" fill="#E9ECEF"/>
<rect x="25.3848" y="43.0183" width="12.039" height="1.80584" fill="#CCD2D8"/>
<path d="M34.8926 13.5392H14.9002C13.1329 13.5392 11.7002 14.9719 11.7002 16.7392V62.9922C11.7002 64.7595 13.1329 66.1922 14.9002 66.1922H46.1095C47.8768 66.1922 49.3095 64.7595 49.3095 62.9922V27.9561L34.8926 13.5392Z" fill="#DEE2E6"/>
<path fill-rule="evenodd" clip-rule="evenodd" d="M49.3098 28.018H38.7666C36.7024 28.018 35.0289 26.3446 35.0289 24.2803V13.6853L49.3098 27.9662V28.018Z" fill="#CCD2D8"/>
<path d="M30.9807 36.5345C31.25 35.8217 32.2285 35.8217 32.4978 36.5345L33.8022 39.9871C33.8884 40.2152 34.0668 40.3931 34.2908 40.4743L37.6952 41.7081C38.4206 41.971 38.4206 43.0287 37.6952 43.2917L34.2908 44.5255C34.0668 44.6066 33.8884 44.7846 33.8022 45.0126L32.4978 48.4652C32.2285 49.1781 31.25 49.1781 30.9807 48.4652L29.6763 45.0126C29.5901 44.7846 29.4117 44.6066 29.1877 44.5255L25.7833 43.2917C25.0579 43.0287 25.0579 41.971 25.7833 41.7081L29.1877 40.4743C29.4117 40.3931 29.5901 40.2152 29.6763 39.9871L30.9807 36.5345Z" fill="#E9ECEF"/>
<path d="M20.315 49.4046C20.2452 48.931 20.7823 48.6324 21.1478 48.9415L22.9177 50.4386C23.0347 50.5375 23.1869 50.5807 23.3346 50.5569L25.5801 50.195C26.0586 50.1179 26.3815 50.6985 26.0635 51.0643L24.5713 52.7808C24.4731 52.8937 24.4294 53.0459 24.4518 53.1974L24.7896 55.4908C24.8594 55.9644 24.3223 56.263 23.9568 55.9539L22.1868 54.4568C22.0699 54.3579 21.9177 54.3147 21.7699 54.3385L19.5245 54.7004C19.046 54.7775 18.7231 54.1969 19.0411 53.8311L20.5333 52.1146C20.6315 52.0017 20.6751 51.8495 20.6528 51.698L20.315 49.4046Z" fill="#E9ECEF"/>
</svg>
