<svg width="20" height="20" viewBox="0 0 20 20" fill="none" xmlns="http://www.w3.org/2000/svg">
  <g clip-path="url(#clip0_669_91147)">
  <path d="M9.16666 12.5003H10.8333V14.167H9.16666V12.5003ZM9.16666 5.83366H10.8333V10.8337H9.16666V5.83366ZM9.99166 1.66699C5.39166 1.66699 1.66666 5.40033 1.66666 10.0003C1.66666 14.6003 5.39166 18.3337 9.99166 18.3337C14.6 18.3337 18.3333 14.6003 18.3333 10.0003C18.3333 5.40033 14.6 1.66699 9.99166 1.66699ZM9.99999 16.667C6.31666 16.667 3.33332 13.6837 3.33332 10.0003C3.33332 6.31699 6.31666 3.33366 9.99999 3.33366C13.6833 3.33366 16.6667 6.31699 16.6667 10.0003C16.6667 13.6837 13.6833 16.667 9.99999 16.667Z" fill="#E6635E"/>
  </g>
  <defs>
  <clipPath id="clip0_669_91147">
  <rect width="20" height="20" fill="white"/>
  </clipPath>
  </defs>
</svg>
