<svg width="45" height="45" viewBox="0 0 45 45" fill="none" xmlns="http://www.w3.org/2000/svg">
<g clip-path="url(#clip0_386_74954)">
<path opacity="0.7" d="M9.85987 24.0637H44.7617V37.8731C44.7617 39.0162 43.8311 39.9468 42.688 39.9468H9.85987C8.71681 39.9468 7.78613 39.0162 7.78613 37.8731V26.1374C7.78613 24.9944 8.71681 24.0637 9.85987 24.0637Z" fill="#AAE7E0"/>
<path d="M2.83544 9.1499H35.6636C36.8067 9.1499 37.7373 10.0806 37.7373 11.2236V30.8834C37.7373 32.0265 36.8067 32.9572 35.6636 32.9572H0.761719V11.2236C0.761719 10.0806 1.69238 9.1499 2.83544 9.1499Z" fill="#39B9AC"/>
<path fill-rule="evenodd" clip-rule="evenodd" d="M16.6639 18.669H6.41113V17.4255H16.6639V18.669Z" fill="white"/>
<path fill-rule="evenodd" clip-rule="evenodd" d="M32.0913 24.6856H6.41113V23.4421H32.0913V24.6856Z" fill="white"/>
<path d="M37.5288 19.5186C41.5235 19.5186 44.7618 16.2803 44.7618 12.2857C44.7618 8.29103 41.5235 5.05273 37.5288 5.05273C33.5342 5.05273 30.2959 8.29103 30.2959 12.2857C30.2959 16.2803 33.5342 19.5186 37.5288 19.5186Z" fill="#008074"/>
<path fill-rule="evenodd" clip-rule="evenodd" d="M36.474 14.5421L41.2554 9.76074L42.1347 10.64L36.9136 15.861C36.6708 16.1038 36.2772 16.1038 36.0344 15.861L32.9219 12.7485L33.8011 11.8692L36.474 14.5421Z" fill="white"/>
</g>
<defs>
<clipPath id="clip0_386_74954">
<rect width="44" height="44" fill="white" transform="translate(0.761719 0.5)"/>
</clipPath>
</defs>
</svg>
