<svg width="48" height="48" viewBox="0 0 48 48" fill="none" xmlns="http://www.w3.org/2000/svg">
  <path d="M27.6444 24.8451L23.8107 28.7179L39.537 44.6046L43.3707 40.7318L27.6444 24.8451Z" fill="#00A293"/>
  <path d="M19 34.3069C27.2843 34.3069 34 27.5227 34 19.1539C34 10.7852 27.2843 4.00098 19 4.00098C10.7157 4.00098 4 10.7852 4 19.1539C4 27.5227 10.7157 34.3069 19 34.3069Z" fill="#00A293"/>
  <path d="M18.9996 29.9252C24.8883 29.9252 29.6621 25.1028 29.6621 19.154C29.6621 13.2052 24.8883 8.38281 18.9996 8.38281C13.1109 8.38281 8.33716 13.2052 8.33716 19.154C8.33716 25.1028 13.1109 29.9252 18.9996 29.9252Z" fill="#CDF1ED"/>
  <path d="M26.3825 19.1541H24.7826C24.7826 15.9318 22.1891 13.3117 18.9993 13.3117V11.6956C23.0685 11.6956 26.3825 15.0434 26.3825 19.1541Z" fill="white"/>
</svg>
