<svg width="61" height="60" viewBox="0 0 61 60" fill="none" xmlns="http://www.w3.org/2000/svg">
<mask id="mask0_471_11489" style="mask-type:alpha" maskUnits="userSpaceOnUse" x="0" y="0" width="61" height="60">
<rect x="0.5" width="60" height="60" fill="#D9D9D9"/>
</mask>
<g mask="url(#mask0_471_11489)">
<path d="M25.8147 35.688L17.3533 30.8113L7.77935 36.6143C7.77935 36.6143 4.48497 41.3997 3.68312 42.6978C2.54313 44.5424 2.08584 47.3293 5.43496 47.3293C5.43496 47.3293 3.55913 50.1835 4.712 51.3663C5.86487 52.549 8.27849 52.8599 9.85483 51.964L16.252 57.8504L25.8147 35.688Z" fill="#E79080"/>
<path d="M19.5111 92.7019H26.0183C26.0183 92.7019 25.9098 85.3443 26.8807 79.2657C27.6424 74.4979 34.1854 62.7476 36.0854 58.9655C37.6618 55.826 38.1174 53.6064 38.0691 48.696C38.0691 48.696 38.0724 41.3304 38.0724 38.9826C38.0724 36.6348 36.1971 34.9793 33.9445 33.6988C31.6919 32.4184 24.7167 28.7853 22.0342 27.3958C19.3517 26.0063 17.4195 27.0753 16.2392 27.3958C15.059 27.7163 5.8296 30.8142 4.32733 31.4552C2.82506 32.0962 1.42583 34.5001 3.6881 35.7598C4.79427 36.3768 6.76188 36.8592 8.85508 36.598C11.0674 36.3223 13.3555 35.1059 17.8236 34.388C17.8236 34.388 20.6704 35.7934 21.2098 36.6428L19.5127 92.7003" fill="#F9BDAE"/>
<path d="M7.72803 36.667C9.65377 36.167 15.4439 34.6414 17.2778 34.1814C17.6578 34.0885 18.0684 34.1542 18.3937 34.3529C19.4113 35.0276 20.3935 35.7359 21.2082 36.643C20.6962 36.3209 20.181 36.0228 19.656 35.7391C19.1392 35.4507 18.5998 35.1702 18.0861 34.9042C17.8881 34.8112 17.6595 34.8 17.4614 34.8641L16.6096 35.135C13.7291 35.9907 10.7519 36.6863 7.72803 36.667Z" fill="#DB8474"/>
<path d="M5.43506 47.3308C7.28996 46.8917 9.08206 44.5247 10.2092 43.0519L10.6874 42.3852C10.8693 42.1047 11.1205 41.8435 11.4619 41.7762C13.167 41.5583 14.8416 41.3355 16.5499 41.0566C15.0251 41.7938 13.3731 42.2137 11.7114 42.507C11.6003 42.523 11.5214 42.5711 11.4619 42.6608C10.3235 44.3484 8.95324 46.0151 7.09674 46.9542C6.58632 47.177 6.00183 47.4094 5.43506 47.3308Z" fill="#D68272"/>
<path d="M25.2939 34.3044L32.3907 33.2224C32.3907 33.2224 36.6629 34.7126 37.5312 35.6538C38.3995 36.595 38.0749 40.771 38.0749 40.771C30.7509 41.6985 26.8231 48.4287 24.4375 51.0564C23.4757 52.1158 22.3146 51.7398 22.7944 50.3585C23.2742 48.9772 25.2939 34.3044 25.2939 34.3044Z" fill="#E79080"/>
<path fill-rule="evenodd" clip-rule="evenodd" d="M22.3917 16.4487C24.4706 16.1911 25.9757 14.5293 25.7536 12.7371C25.7536 12.737 25.7536 12.737 25.7536 12.737L53.6188 9.28365C54.1668 9.21573 54.6662 9.60498 54.7342 10.1531L57.8396 35.2114C57.9075 35.7595 57.5183 36.2588 56.9702 36.3268L12.9498 41.7822C12.4017 41.8501 11.9023 41.4609 11.8344 40.9128L8.72895 15.8545C8.66102 15.3064 9.05027 14.807 9.59837 14.7391L18.2255 13.6699C18.2255 13.67 18.2255 13.67 18.2255 13.67C18.4476 15.4623 20.3129 16.7064 22.3917 16.4487Z" fill="#09AD97"/>
<circle cx="23.0274" cy="20.7133" r="1.58036" transform="rotate(-7.06461 23.0274 20.7133)" fill="#F4FBFB"/>
<circle cx="23.8037" cy="26.9868" r="1.58036" transform="rotate(-7.06461 23.8037 26.9868)" fill="#F4FBFB"/>
<circle cx="24.5811" cy="33.2602" r="1.58036" transform="rotate(-7.06461 24.5811 33.2602)" fill="#F4FBFB"/>
<path d="M42.6957 22.6587L45.4806 22.3135C44.7288 19.2497 42.1993 17.7524 39.1396 18.1316C35.6403 18.5652 33.2789 21.4271 33.8263 25.8436C34.3713 30.2414 37.3163 32.4646 40.8615 32.0253C44.2326 31.6075 46.0114 29.0738 46.0036 26.5339L43.2164 26.8604C43.1325 28.3593 42.1007 29.3404 40.5903 29.537C38.5646 29.7786 36.9905 28.4094 36.6294 25.4962C36.2765 22.6484 37.4424 20.8732 39.5024 20.6084C41.0517 20.4259 42.2907 21.192 42.6957 22.6587Z" fill="#9CF0E2"/>
<path d="M8.21281 92.7022C8.21281 92.7022 8.37866 86.0931 8.21281 78.8237C8.04697 71.5543 4.72682 61.1209 8.21281 54.0166C11.6988 46.9122 16.2716 42.0343 19.2053 37.132C22.139 32.2296 22.5802 30.909 25.237 30.4683C27.8937 30.0276 29.995 31.6799 28.8888 34.3787C27.7826 37.0775 22.5802 50.8454 22.3033 51.5073L22.0473 92.7038H7.19682L8.21281 92.7022Z" fill="#F9BDAE"/>
</g>
</svg>
