<svg width="40" height="72" viewBox="0 0 40 72" fill="none" xmlns="http://www.w3.org/2000/svg">
<mask id="mask0_468_13964" style="mask-type:alpha" maskUnits="userSpaceOnUse" x="-1" y="0" width="41" height="73">
<rect width="40" height="72" transform="matrix(1 -9.52531e-06 -9.57387e-06 1 0 0.00292969)" fill="#D9D9D9"/>
</mask>
<g mask="url(#mask0_468_13964)">
<path d="M16.7645 37.1474L10.6802 33.6408L3.79582 37.8136C3.79582 37.8136 1.42689 41.2547 0.850294 42.1881C0.0305482 43.5145 -0.298291 45.5185 2.10996 45.5185C2.10996 45.5185 0.761091 47.5709 1.59008 48.4214C2.41907 49.2718 4.15463 49.4954 5.28813 48.8512L9.88809 53.0838L16.7645 37.1474Z" fill="#E79080"/>
<path d="M12.2317 78.144L16.9108 78.144C16.9108 78.144 16.8329 72.8534 17.5311 68.4824C18.0788 65.054 22.7838 56.6047 24.1501 53.885C25.2836 51.6275 25.6113 50.0314 25.5766 46.5005C25.5766 46.5005 25.579 41.2042 25.579 39.5159C25.579 37.8277 24.2306 36.6373 22.6108 35.7165C20.991 34.7958 15.9754 32.1834 14.0465 31.1843C12.1176 30.1852 10.7282 30.9538 9.87949 31.1843C9.03081 31.4148 2.39419 33.6424 1.31395 34.1034C0.233702 34.5644 -0.772456 36.2929 0.854265 37.1987C1.64968 37.6424 3.06453 37.9892 4.56969 37.8014C6.16053 37.6031 7.80579 36.7285 11.0187 36.2122C11.0187 36.2122 13.0657 37.2228 13.4536 37.8335L12.2329 78.1429" fill="#F9BDAE"/>
<path d="M3.75975 37.8514C5.1445 37.4918 9.30801 36.3947 10.6268 36.064C10.9 35.9971 11.1953 36.0444 11.4291 36.1873C12.1609 36.6724 12.8671 37.1818 13.453 37.834C13.0848 37.6024 12.7143 37.388 12.3368 37.1841C11.9652 36.9766 11.5773 36.775 11.208 36.5837C11.0656 36.5168 10.9012 36.5088 10.7588 36.5549L10.1463 36.7496C8.07493 37.365 5.93412 37.8652 3.75975 37.8514V37.8514Z" fill="#DB8474"/>
<path d="M2.1108 45.5194C3.4446 45.2036 4.73327 43.5015 5.54375 42.4425L5.88762 41.9631C6.01846 41.7614 6.19908 41.5736 6.44454 41.5252C7.67066 41.3685 8.87479 41.2083 10.1032 41.0077C9.00678 41.5378 7.81886 41.8398 6.62399 42.0507C6.5441 42.0622 6.48737 42.0968 6.44453 42.1613C5.62594 43.3748 4.64063 44.5733 3.30566 45.2486C2.93864 45.4088 2.51835 45.5759 2.1108 45.5194V45.5194Z" fill="#D68272"/>
<path d="M16.3913 36.1525L21.4945 35.3744C21.4945 35.3744 24.5665 36.4459 25.1908 37.1228C25.8152 37.7996 25.5818 40.8024 25.5818 40.8024C20.3153 41.4694 17.4908 46.3089 15.7754 48.1984C15.0838 48.9602 14.2489 48.6898 14.594 47.6966C14.939 46.7033 16.3913 36.1525 16.3913 36.1525Z" fill="#E79080"/>
<path fill-rule="evenodd" clip-rule="evenodd" d="M14.3036 23.313C15.7984 23.1277 16.8808 21.9328 16.7211 20.644C16.721 20.644 16.721 20.6439 16.721 20.6438L36.4802 18.1948C37.0283 18.1269 37.5277 18.5162 37.5956 19.0643L39.7594 36.5253C39.8273 37.0734 39.4381 37.5728 38.89 37.6408L7.79375 41.4948C7.24565 41.5627 6.74628 41.1735 6.67836 40.6254L4.51458 23.1643C4.44666 22.6162 4.83592 22.1168 5.38401 22.0489L11.3078 21.3147C11.3078 21.3148 11.3078 21.3149 11.3078 21.315C11.4675 22.6037 12.8088 23.4983 14.3036 23.313Z" fill="#09AD97"/>
<circle r="1.13639" transform="matrix(0.992409 -0.122998 0.122979 0.992407 14.7612 26.3793)" fill="#F4FBFB"/>
<circle r="1.13639" transform="matrix(0.992409 -0.122998 0.122979 0.992407 15.3193 30.8906)" fill="#F4FBFB"/>
<circle r="1.13639" transform="matrix(0.992409 -0.122998 0.122979 0.992407 15.8779 35.4016)" fill="#F4FBFB"/>
<path d="M28.904 27.7783L30.9066 27.5301C30.366 25.327 28.5471 24.2503 26.347 24.523C23.8307 24.8349 22.1327 26.8928 22.5262 30.0685C22.9181 33.2309 25.0358 34.8295 27.585 34.5135C30.0091 34.2131 31.2882 32.3912 31.2826 30.5649L29.2785 30.7996C29.218 31.8774 28.4761 32.5829 27.3901 32.7243C25.9335 32.898 24.8015 31.9135 24.5419 29.8187C24.2882 27.7709 25.1265 26.4944 26.6078 26.304C27.7219 26.1728 28.6128 26.7236 28.904 27.7783Z" fill="#9CF0E2"/>
<path d="M4.10791 78.1451C4.10791 78.1451 4.22721 73.3926 4.108 68.1654C3.9888 62.9382 1.60145 55.4359 4.10817 50.3273C6.61488 45.2188 9.90312 41.7112 12.0127 38.186C14.1223 34.6608 14.4395 33.7113 16.3499 33.3943C18.2603 33.0774 19.7713 34.2655 18.9758 36.2061C18.1804 38.1468 14.4394 48.0469 14.2402 48.5229L14.0559 78.1461L3.37733 78.1462L4.10791 78.1451Z" fill="#F9BDAE"/>
</g>
</svg>
