<svg width="18" height="18" viewBox="0 0 18 18" fill="none" xmlns="http://www.w3.org/2000/svg">
<path d="M7 15H11.9996" stroke="#19275F" stroke-width="1.6" stroke-linecap="round" stroke-linejoin="round"/>
<path d="M6.41864 10.9382C5.82344 10.4754 5.34137 9.88316 5.00896 9.20643C4.67655 8.5297 4.50252 7.78619 4.50005 7.03224C4.48755 4.31996 6.66862 2.0639 9.3809 2.0014C10.4306 1.97652 11.4615 2.28276 12.3274 2.87669C13.1933 3.47061 13.8502 4.32208 14.2049 5.31033C14.5597 6.29857 14.5943 7.37343 14.3039 8.38247C14.0135 9.3915 13.4127 10.2835 12.5869 10.9319C12.4044 11.0729 12.2567 11.2538 12.1549 11.4607C12.053 11.6676 11.9999 11.895 11.9994 12.1256V12.5005C11.9994 12.6331 11.9468 12.7603 11.853 12.8541C11.7592 12.9478 11.6321 13.0005 11.4995 13.0005H7.4998C7.36721 13.0005 7.24004 12.9478 7.14628 12.8541C7.05252 12.7603 6.99985 12.6331 6.99985 12.5005V12.1256C6.99828 11.8967 6.94523 11.6712 6.84461 11.4656C6.744 11.26 6.59841 11.0798 6.41864 10.9382Z" fill="#19275F"/>
<path d="M10.0049 4.05127C10.6159 4.15485 11.1798 4.44555 11.6186 4.88324C12.0574 5.32093 12.3495 5.88402 12.4547 6.49482" stroke="#F4FBFB" stroke-linecap="round" stroke-linejoin="round"/>
</svg>
