<svg width="16" height="16" viewBox="0 0 16 16" fill="none" xmlns="http://www.w3.org/2000/svg">
<path d="M2.3277 13.0137H9.01465C9.22951 13.0137 9.4029 13.1464 9.4029 13.3109V15.0392H1.93945V13.3109C1.93945 13.1464 2.11285 13.0137 2.3277 13.0137Z" fill="#006C63"/>
<path d="M8.50687 8.49895L9.58908 7.4037L14.6472 12.5227C14.7858 12.6631 14.7877 12.893 14.6513 13.0311L14.0643 13.6252C13.9279 13.7632 13.7007 13.7613 13.562 13.621L8.50391 8.50195L8.50687 8.49895Z" fill="#006C63"/>
<path d="M8.45784 2.54942L3.71094 7.35352L6.67293 10.3512L11.4198 5.5471L8.45784 2.54942Z" fill="#006C63"/>
<path d="M2.94514 7.13889L2.41441 7.67601C2.26213 7.83014 2.25598 8.0738 2.4007 8.22026L5.81266 11.6733C5.95737 11.8198 6.19814 11.8136 6.35043 11.6595L6.88116 11.1223C7.03345 10.9682 7.03959 10.7245 6.89487 10.5781L3.48291 7.12501C3.3382 6.97855 3.09743 6.98477 2.94514 7.13889Z" fill="#006C63"/>
<path d="M8.77913 1.23853L8.2484 1.77565C8.09611 1.92978 8.08997 2.17344 8.23468 2.3199L11.6466 5.77297C11.7914 5.91943 12.0321 5.91322 12.1844 5.75909L12.7151 5.22197C12.8674 5.06785 12.8736 4.82418 12.7289 4.67772L9.31689 1.22465C9.17218 1.07819 8.93141 1.08441 8.77913 1.23853Z" fill="#006C63"/>
</svg>
