<svg width="48" height="48" viewBox="0 0 48 48" fill="none" xmlns="http://www.w3.org/2000/svg">
  <mask id="mask0_208_12421" style="mask-type:alpha" maskUnits="userSpaceOnUse" x="0" y="0" width="48"
        height="48">
    <circle cx="24" cy="24" r="24" fill="#C4C4C4" />
  </mask>
  <g mask="url(#mask0_208_12421)">
    <path
      d="M24.0017 23.4676H28.5607C29.7372 23.4676 30.7608 22.3736 31.0376 21.2279C31.7529 18.2691 33.0727 15.9381 31.8598 12.0583C30.4685 7.60827 26.0671 7 24.0015 7C21.9361 7 17.5346 7.60809 16.1432 12.0583C14.9302 15.9381 16.2501 18.2691 16.9654 21.2279C17.2423 22.3734 18.2658 23.4676 19.4423 23.4676H24.0013H24.0017Z"
      fill="#343A40" />
    <path
      d="M24.0007 25.2568H28.6988C28.6988 25.2568 28.2403 30.7072 30.8276 31.276L26.8065 37.9586H21.195L17.1738 31.276C19.7612 30.7072 19.3027 25.2568 19.3027 25.2568H24.0007Z"
      fill="url(#paint0_linear_208_12421)" />
    <path
      d="M17.0721 17.9849C17.0721 17.9849 15.3804 17.9712 15.6676 19.7161C15.9547 21.461 16.9192 23.1552 17.8252 23.0439L19.4971 20.517L17.0719 17.985L17.0721 17.9849Z"
      fill="url(#paint1_linear_208_12421)" />
    <path
      d="M30.9289 17.9844C30.9289 17.9844 32.6206 17.9707 32.3334 19.7156C32.0463 21.4605 31.0818 23.1548 30.1758 23.0434L28.5039 20.5166L30.9291 17.9846L30.9289 17.9844Z"
      fill="url(#paint2_linear_208_12421)" />
    <path
      d="M24.0006 10.7075H27.6864L30.8483 12.6497L30.9953 16.2104C30.9953 16.2104 30.9953 22.0008 29.4875 24.9141C28.5019 26.8184 26.3461 28.7265 24.0006 28.7265C21.6551 28.7265 19.4993 26.8184 18.5137 24.9141C17.0059 22.0008 17.0059 16.2104 17.0059 16.2104L17.1529 12.6497L20.3147 10.7075H24.0006Z"
      fill="#F2CBB9" />
    <path
      d="M17.0712 17.9858C17.0712 17.9858 17.1389 12.7195 21.3141 11.5861C21.3141 11.5861 25.9298 17.9858 30.9289 17.9858L31.6374 16.6696L31.0466 12.0237L28.1529 9.19516L22.3926 8.87012L18.8475 9.96105L16.9117 11.6556L16.3916 13.977V17.5286L17.0714 17.9858H17.0712Z"
      fill="#343A40" />
    <path
      d="M17.8798 30.9465L18.4756 30.2822L24.0019 34.6606V56.705H23.0797L13.4736 49.3551L17.8798 30.9465Z"
      fill="white" />
    <path d="M30.1219 30.9465L29.5263 30.2822L24 34.6606V56.705H24.9222L34.5282 49.3551L30.1219 30.9465Z"
          fill="white" />
    <path
      d="M25.2909 38.3253L26.2989 37.1914C26.3989 37.079 26.3912 36.9071 26.2817 36.8041L24.0013 34.6602L21.721 36.8041C21.6115 36.9071 21.6038 37.079 21.7038 37.1914L22.7118 38.3253C22.7748 38.3962 22.8023 38.4921 22.7862 38.5857L19.9482 57.9107H28.0543L25.2164 38.5857C25.2004 38.492 25.2277 38.3961 25.2908 38.3253H25.2909Z"
      fill="#38756F" />
    <path
      d="M17.8782 30.9458L23.0781 56.7043H1C1 56.7043 2.09265 47.5543 2.35974 44.4948C2.71383 40.4397 3.22775 36.8351 6.98589 35.016C12.7576 32.2225 17.8782 30.9458 17.8782 30.9458Z"
      fill="#38756F" />
    <path
      d="M30.1218 30.9458L24.9219 56.7043H46.9999C46.9999 56.7043 45.9073 47.5543 45.6402 44.4948C45.2861 40.4397 44.7722 36.8351 41.0141 35.016C35.2423 32.2225 30.1218 30.9458 30.1218 30.9458Z"
      fill="#38756F" />
    <path
      d="M17.8781 30.946L16.0559 31.4657L14.0224 33.2807C13.9036 33.3783 13.8868 33.5541 13.9848 33.6726L15.8922 35.9787L13.6175 37.7889C13.5124 37.8725 13.4822 38.0196 13.5458 38.1381L23.0778 55.871L17.8779 30.9458L17.8781 30.946Z"
      fill="#519189" />
    <path
      d="M30.1216 30.946L31.9438 31.4657L33.9773 33.2807C34.0961 33.3783 34.1129 33.5541 34.0149 33.6726L32.1075 35.9787L34.3821 37.7889C34.4873 37.8725 34.5175 38.0196 34.4539 38.1381L24.9219 55.871L30.1218 30.9458L30.1216 30.946Z"
      fill="#519189" />
  </g>
  <defs>
    <linearGradient id="paint0_linear_208_12421" x1="21.027" y1="39.2995" x2="25.7428" y2="26.4623"
                    gradientUnits="userSpaceOnUse">
      <stop offset="0.54" stop-color="#F2CBB9" />
      <stop offset="1" stop-color="#EAB59D" />
    </linearGradient>
    <linearGradient id="paint1_linear_208_12421" x1="13.4547" y1="20.517" x2="17.3171" y2="20.517"
                    gradientUnits="userSpaceOnUse">
      <stop offset="0.54" stop-color="#F2CBB9" />
      <stop offset="1" stop-color="#EAB59D" />
    </linearGradient>
    <linearGradient id="paint2_linear_208_12421" x1="34.7155" y1="20.5166" x2="30.8531" y2="20.5166"
                    gradientUnits="userSpaceOnUse">
      <stop offset="0.54" stop-color="#F2CBB9" />
      <stop offset="1" stop-color="#EAB59D" />
    </linearGradient>
  </defs>
</svg>