<svg width="18" height="18" viewBox="0 0 18 18" fill="none" xmlns="http://www.w3.org/2000/svg">
<g clip-path="url(#clip0_1569_152653)">
<path d="M13.6098 2.25L10.3171 5.54268V12.7866L13.6098 9.82317V2.25ZM1.7561 5.54268V15.1902C1.7561 15.3549 1.92074 15.5195 2.08537 15.5195C2.15123 15.5195 2.18415 15.4866 2.25001 15.4866C3.13903 15.0585 4.42318 14.7622 5.37805 14.7622C6.6622 14.7622 8.04513 15.0256 9.00001 15.75V5.54268C8.04513 4.81829 6.6622 4.55488 5.37805 4.55488C4.09391 4.55488 2.71098 4.81829 1.7561 5.54268ZM16.2439 14.4329V5.54268C15.8488 5.24634 15.4207 5.04878 14.9268 4.88415V13.7744C14.2024 13.5439 13.4122 13.4451 12.622 13.4451C11.5024 13.4451 9.88903 13.8732 9.00001 14.4329V15.75C9.88903 15.1902 11.5024 14.7622 12.622 14.7622C13.7085 14.7622 14.8281 14.9598 15.75 15.4537C15.8159 15.4866 15.8488 15.4866 15.9146 15.4866C16.0793 15.4866 16.2439 15.322 16.2439 15.1573V14.4329Z" fill="#646A70"/>
</g>
<defs>
<clipPath id="clip0_1569_152653">
<rect width="18" height="18" fill="white"/>
</clipPath>
</defs>
</svg>
