<svg width="741" height="734" viewBox="0 0 741 734" fill="none" xmlns="http://www.w3.org/2000/svg">
  <rect x="2.5" y="2.5" width="736" height="729" rx="364.5" fill="#EBE9E5" stroke="#EBE9E5"
        stroke-width="5" />
  <path fill-rule="evenodd" clip-rule="evenodd"
        d="M250.626 479.74C273.264 503.939 311.233 505.205 335.432 482.567L380.061 440.817C387.467 433.889 387.27 422.082 379.639 415.404V415.404C373.013 409.607 363.074 409.772 356.645 415.786L320.565 449.538C308.309 461.003 289.08 460.362 277.615 448.106C266.15 435.85 266.791 416.621 279.047 405.156L342.806 345.51C355.062 334.045 374.292 334.686 385.757 346.942V346.942C388.011 349.352 391.729 350.162 394.425 348.257L412.951 335.168C415.704 333.223 416.313 329.359 414.01 326.898V326.898L407.568 320.011C384.93 295.812 346.961 294.546 322.762 317.184L247.011 388.048C222.812 410.685 221.546 448.654 244.184 472.853L250.626 479.74Z"
        fill="#84796B" />
  <path fill-rule="evenodd" clip-rule="evenodd"
        d="M505.802 221.011C483.164 196.812 445.195 195.546 420.996 218.184L376.367 259.934C368.961 266.861 369.157 278.669 376.789 285.347V285.347C383.415 291.144 393.354 290.979 399.783 284.965L435.863 251.213C448.119 239.748 467.348 240.389 478.813 252.645C490.278 264.901 489.637 284.13 477.381 295.595L413.621 355.241C401.366 366.706 382.136 366.065 370.671 353.809V353.809C368.417 351.399 364.699 350.589 362.003 352.494L343.477 365.583C340.724 367.528 340.115 371.391 342.418 373.853V373.853L348.86 380.74C371.498 404.939 409.467 406.205 433.666 383.567L509.417 312.703C533.616 290.065 534.882 252.097 512.244 227.898L505.802 221.011Z"
        fill="#84796B" />
</svg>