<svg width="20" height="20" viewBox="0 0 20 20" fill="none" xmlns="http://www.w3.org/2000/svg">
<path d="M15.625 6.5625H14.6875V4.6875C14.6875 2.1 12.5875 0 10 0C7.4125 0 5.3125 2.1 5.3125 4.6875V6.5625H4.375C3.34375 6.5625 2.5 7.40625 2.5 8.4375V17.8125C2.5 18.8438 3.34375 19.6875 4.375 19.6875H15.625C16.6562 19.6875 17.5 18.8438 17.5 17.8125V8.4375C17.5 7.40625 16.6562 6.5625 15.625 6.5625ZM10 15C8.96875 15 8.125 14.1562 8.125 13.125C8.125 12.0938 8.96875 11.25 10 11.25C11.0312 11.25 11.875 12.0938 11.875 13.125C11.875 14.1562 11.0312 15 10 15ZM12.9062 6.5625H7.09375V4.6875C7.09375 3.08437 8.39687 1.78125 10 1.78125C11.6031 1.78125 12.9062 3.08437 12.9062 4.6875V6.5625Z" fill="white"/>
</svg>
