<svg width="132" height="22" viewBox="0 0 132 22" fill="none" xmlns="http://www.w3.org/2000/svg">
<path d="M0 21.9763V0.8125H3.0696V20.0367H6.52525C8.46066 20.0975 10.3956 19.9025 12.28 19.4568V21.9763H0Z" fill="#38756F"/>
<path d="M17.7069 21.9728C17.179 21.9785 16.6554 21.8787 16.1666 21.6793C15.6779 21.4799 15.2338 21.1849 14.8606 20.8117C14.4873 20.4384 14.1924 19.9944 13.993 19.5057C13.7936 19.0169 13.6938 18.4933 13.6994 17.9654C13.6994 14.9959 16.5752 13.8424 22.1018 12.453L22.616 12.3217C22.616 9.80221 21.9612 7.84541 19.698 7.84541C18.8718 7.89609 18.0703 8.14675 17.3624 8.57583C16.6545 9.00491 16.0615 9.59956 15.6343 10.3086L14.409 8.50184C15.9204 7.02671 17.9502 6.20345 20.0621 6.20901C23.5834 6.20901 25.3292 7.88761 25.3292 12.3467V21.9759H22.6144V19.9285H22.5363C21.2587 21.2197 19.5232 21.9544 17.7069 21.9728ZM22.6176 13.6158L21.8096 13.844C17.9351 14.938 16.4799 15.9321 16.4799 17.42C16.4559 17.7387 16.4999 18.0589 16.6089 18.3594C16.7179 18.6599 16.8894 18.9338 17.1123 19.163C17.3351 19.3922 17.6041 19.5714 17.9014 19.6888C18.1987 19.8062 18.5175 19.8592 18.8368 19.8441C19.5559 19.8815 20.2737 19.7474 20.9308 19.4528C21.5879 19.1582 22.1655 18.7116 22.616 18.1499L22.6176 13.6158Z" fill="#38756F"/>
<path d="M40.3119 21.9755L36.6608 12.1525L32.9442 21.9755H31.3609L25.8906 6.18985H28.8946L32.9582 18.0572L35.9653 10.3035L34.3524 6.18985H37.3563L41.6466 18.0901L45.6899 6.18359H47.3842L41.8998 21.9693L40.3119 21.9755Z" fill="#38756F"/>
<path d="M62.7666 21.7395L60.1987 18.648C59.5944 19.7193 58.7012 20.5993 57.621 21.1876C56.5408 21.776 55.317 22.0489 54.0892 21.9755C53.3205 22.0447 52.5459 21.9536 51.8143 21.7079C51.0827 21.4621 50.4101 21.0671 49.8392 20.5479C49.2682 20.0286 48.8113 19.3964 48.4974 18.6914C48.1835 17.9864 48.0194 17.2238 48.0156 16.452C48.0156 14.0576 49.7927 11.7992 52.6028 10.3113L53.0545 10.0534L52.9263 9.89708C51.5056 8.12002 50.3084 6.56646 50.3084 5.08323C50.3084 2.46531 51.7963 0.816406 55.6412 0.816406C59.0015 0.816406 60.5223 2.88417 60.5223 4.95194C60.5223 6.92437 59.4281 8.28257 57.3229 9.64076L56.5774 10.0924L60.6832 14.9735L62.8885 11.3944H64.6625L61.6819 16.191L66.2879 21.7395H62.7666ZM53.897 11.0537L53.3499 11.41C52.6091 11.8954 52.0001 12.5566 51.5771 13.3347C51.1541 14.1128 50.9304 14.9835 50.9258 15.8691C50.8821 16.9177 51.2549 17.9411 51.9629 18.7159C52.671 19.4906 53.6566 19.9539 54.705 20.0046C55.6178 20.0238 56.5186 19.7936 57.3102 19.3386C58.1017 18.8836 58.7541 18.2211 59.1969 17.4226L53.897 11.0537ZM55.7397 9.08435C56.3587 8.65478 56.8623 8.07918 57.2058 7.40854C57.5493 6.7379 57.7221 5.9929 57.7089 5.23952C57.7089 3.42964 56.8384 2.23243 55.3833 2.23243C55.0751 2.22735 54.7693 2.28701 54.4856 2.40757C54.202 2.52813 53.9468 2.70688 53.7366 2.93228C53.5264 3.15768 53.3658 3.4247 53.2653 3.71606C53.1647 4.00743 53.1265 4.31665 53.153 4.62372C53.2834 5.78021 53.7953 6.86028 54.608 7.69333L55.7397 9.08435Z" fill="#38756F"/>
<path d="M80.9691 12.7374H77.9995V14.7395C78.9774 14.5389 79.9711 14.4248 80.9691 14.3988V20.1051C80.1399 20.3429 79.2791 20.452 78.4168 20.4286C73.8593 20.4286 70.2082 17.0355 70.2082 11.2182C70.2082 5.56506 73.6014 2.26882 77.6385 2.26882C78.7593 2.2459 79.8712 2.4724 80.8937 2.93191C81.9163 3.39143 82.824 4.07249 83.551 4.92582L84.7482 2.85805C82.6799 1.49052 80.2457 0.782088 77.7666 0.826223C76.3442 0.798623 74.9306 1.0563 73.6094 1.58405C72.2882 2.11179 71.0862 2.89891 70.0742 3.89891C69.0623 4.89892 68.261 6.09155 67.7176 7.40638C67.1742 8.72121 66.8998 10.1316 66.9105 11.5542C66.9105 17.695 71.5008 21.9916 78.0276 21.9916C80.155 22.0113 82.2461 21.4405 84.0684 20.3427V12.7374H80.9691Z" fill="#38756F"/>
<path d="M85.8125 14.2515C85.8125 9.62518 88.7211 6.19922 93.3146 6.19922C97.7408 6.19922 100.553 9.33448 100.553 13.9248C100.553 18.5511 97.6439 21.9771 93.0504 21.9771C88.6226 21.9771 85.8125 18.8418 85.8125 14.2515ZM97.6377 14.314C97.6377 9.75647 95.4089 7.65275 93.0504 7.65275C90.5935 7.65275 88.7211 9.88463 88.7211 13.8623C88.7211 18.4198 90.917 20.5236 93.2755 20.5236C95.7324 20.5236 97.6377 18.2917 97.6377 14.314Z" fill="#38756F"/>
<path d="M101.875 14.2515C101.875 9.62518 104.784 6.19922 109.377 6.19922C113.803 6.19922 116.612 9.33448 116.612 13.9248C116.612 18.5511 113.703 21.9771 109.11 21.9771C104.688 21.9771 101.875 18.8418 101.875 14.2515ZM113.7 14.314C113.7 9.75647 111.472 7.65275 109.113 7.65275C106.656 7.65275 104.784 9.88463 104.784 13.8623C104.784 18.4198 106.98 20.5236 109.341 20.5236C111.795 20.5236 113.7 18.2917 113.7 14.314Z" fill="#38756F"/>
<path d="M128.64 21.9765V19.9603H128.512C127.962 20.6623 127.245 21.2149 126.425 21.5672C125.606 21.9195 124.711 22.0602 123.823 21.9765C120.205 21.9765 118.172 18.6162 118.172 14.5135C118.172 10.2466 120.593 6.64405 125.377 6.64405C126.494 6.63891 127.601 6.84795 128.639 7.25985V0.804913L131.354 0V21.9749L128.64 21.9765ZM128.64 9.16039C127.784 8.51664 126.742 8.16639 125.671 8.16167C123.053 8.16167 121.08 10.3185 121.08 13.9445C121.08 17.6284 122.634 19.8837 125.282 19.8837C125.979 19.8705 126.661 19.6681 127.252 19.2982C127.844 18.9282 128.324 18.4046 128.642 17.7831L128.64 9.16039Z" fill="#38756F"/>
</svg>
