<svg width="24" height="24" viewBox="0 0 24 24" fill="none" xmlns="http://www.w3.org/2000/svg">
<path d="M0 12C0 5.37258 5.37258 0 12 0C18.6274 0 24 5.37258 24 12C24 18.6274 18.6274 24 12 24C5.37258 24 0 18.6274 0 12Z" fill="#F1F3F5"/>
<path d="M13.7081 6C13.7598 5.99991 13.8111 6.01001 13.8589 6.02974C13.9067 6.04947 13.9502 6.07843 13.9868 6.11497L17.8847 10.013C17.9585 10.0868 18 10.1869 18 10.2914C18 10.3958 17.9585 10.4959 17.8847 10.5697C17.5067 10.9477 17.0406 11.0328 16.7012 11.0328C16.5618 11.0328 16.4374 11.0186 16.339 11.002L13.8711 13.47C13.936 13.7318 13.9782 13.9987 13.9971 14.2677C14.0333 14.8205 13.9719 15.5962 13.4301 16.138C13.3563 16.2118 13.2561 16.2532 13.1517 16.2532C13.0473 16.2532 12.9472 16.2118 12.8734 16.138L10.6457 13.911L8.13998 16.4167C7.98643 16.5703 7.18007 17.127 7.02652 16.9735C6.87297 16.8199 7.4297 16.0128 7.58325 15.86L10.0889 13.3542L7.86201 11.1265C7.7882 11.0526 7.74673 10.9525 7.74673 10.8481C7.74673 10.7437 7.7882 10.6436 7.86201 10.5697C8.40378 10.0279 9.17942 9.96573 9.73221 10.0027C10.0013 10.0216 10.2681 10.0638 10.5299 10.1287L12.9978 7.66158C12.9772 7.54166 12.9666 7.42022 12.9663 7.29855C12.9663 6.95993 13.0513 6.49375 13.4301 6.11497C13.5039 6.04137 13.6038 6.00002 13.7081 6Z" fill="#ADB5BD"/>
</svg>
