<svg width="68" height="68" viewBox="0 0 68 68" fill="none" xmlns="http://www.w3.org/2000/svg">
<path d="M51.929 58.165C50.434 60.4131 47.9131 61.7629 45.2135 61.7629H22.7854C20.0858 61.7629 17.5649 60.4131 16.0699 58.165C14.184 55.3298 14.2814 51.6154 16.3156 48.8822L27.6342 33.6753H40.3663L51.6849 48.8822C53.7176 51.6138 53.8165 55.3282 51.9306 58.165H51.929Z" fill="#008F7F"/>
<path d="M25.4822 25.4937H42.5192C43.4685 25.4937 44.0796 26.598 43.644 27.5236L40.3684 34.483H27.6346L24.359 27.5236C23.9234 26.598 24.5345 25.4937 25.4838 25.4937H25.4822Z" fill="#008F7F"/>
<path d="M37.4279 21.2918C38.0912 19.3371 35.7519 16.7762 32.2029 15.5718C28.6539 14.3675 25.2391 14.9757 24.5758 16.9304C23.9125 18.8851 26.2518 21.4461 29.8008 22.6504C33.3498 23.8548 36.7646 23.2465 37.4279 21.2918Z" fill="#CCD2D8"/>
<path d="M43.299 8.77296C42.5649 7.37245 39.8214 7.36325 37.1711 8.7524C34.5208 10.1416 32.9675 12.403 33.7016 13.8035C34.4357 15.204 37.1792 15.2132 39.8295 13.8241C42.4798 12.4349 44.0331 10.1735 43.299 8.77296Z" fill="#CCD2D8"/>
<path d="M41.3197 48.3047H39.4214L40.5833 43.7383H38.6659L36.8107 51.0158L34.9602 43.7383H33.0428L31.1876 51.0158L29.3371 43.7383H27.4149L28.5768 48.3047H26.6833V50.2269H29.0646L30.2265 54.7885H32.1487L33.9991 47.5157L35.8544 54.7885H37.7718L38.9337 50.2269H41.3197V48.3047Z" fill="white"/>
</svg>
