<svg width="68" height="68" viewBox="0 0 68 68" fill="none" xmlns="http://www.w3.org/2000/svg">
<path d="M37.9673 33C36.286 33 34.7866 33.7424 33.7676 34.9215C32.7487 33.7497 31.242 33 29.568 33C26.4892 33 24 35.4965 24 38.568C24 40.3294 24.5532 42.018 26.8677 44.0195L33.7749 49.442L40.6821 44.0195C42.9894 42.018 43.5498 40.3294 43.5498 38.568C43.5498 35.4892 41.0533 33 37.9818 33H37.9673Z" fill="#008F7F"/>
<path fill-rule="evenodd" clip-rule="evenodd" d="M34.0688 40.5581L35.3375 36.771L31.1711 41.8843H33.4811L32.2124 45.6714L36.3787 40.5581H34.0688Z" fill="white"/>
<path d="M34.76 12.9956L57.7224 54.1366C58.0462 54.7167 57.6268 55.4312 56.9624 55.4312H11.0376C10.3732 55.4312 9.95377 54.7168 10.2776 54.1366L33.24 12.9956C33.572 12.4007 34.428 12.4007 34.76 12.9956Z" stroke="#008F7F" stroke-width="3"/>
<circle cx="34" cy="14" r="5" fill="white" stroke="#008F7F" stroke-width="4"/>
<circle cx="58" cy="55" r="5" fill="white" stroke="#008F7F" stroke-width="4"/>
<circle cx="10" cy="55" r="5" fill="white" stroke="#008F7F" stroke-width="4"/>
</svg>
