<svg width="68" height="68" viewBox="0 0 68 68" fill="none" xmlns="http://www.w3.org/2000/svg">
<path d="M36.3456 32.3896C40.074 30.4417 42.3924 26.5658 42.3924 22.2757V19.6267C44.647 18.8101 46.2682 16.6511 46.2682 14.1137C46.2682 10.8791 43.6352 8.24609 40.4007 8.24609C37.1661 8.24609 34.5331 10.8791 34.5331 14.1137C34.5331 16.6471 36.1504 18.8061 38.409 19.6267V22.2757C38.409 25.076 36.9112 27.5975 34.5012 28.8563C30.2828 31.0591 27.6617 35.4369 27.6537 40.1612H31.6372C31.6451 36.9107 33.4456 33.9033 36.3456 32.3856V32.3896ZM40.4007 12.2295C41.4403 12.2295 42.2848 13.074 42.2848 14.1137C42.2848 15.1533 41.4403 15.9978 40.4007 15.9978C39.361 15.9978 38.5165 15.1533 38.5165 14.1137C38.5165 13.074 39.361 12.2295 40.4007 12.2295Z" fill="#CCD2D8"/>
<path d="M52.5887 38.3423H15.4114C14.3068 38.3423 13.4114 39.2377 13.4114 40.3423V57.7537C13.4114 58.8583 14.3068 59.7537 15.4114 59.7537H52.5887C53.6933 59.7537 54.5887 58.8583 54.5887 57.7537V40.3423C54.5887 39.2377 53.6933 38.3423 52.5887 38.3423Z" fill="#008F7F"/>
<path d="M34.1332 48.3769H32.235L33.3969 43.8105H31.4795L29.6242 51.0881L27.7738 43.8105H25.8564L24.0011 51.0881L22.1507 43.8105H20.2285L21.3904 48.3769H19.4969V50.2991H21.8781L23.04 54.8607H24.9622L26.8127 47.588L28.6679 54.8607H30.5853L31.7472 50.2991H34.1332V48.3769Z" fill="white"/>
<path d="M43.6572 38.3405H47.9473C47.9473 40.7863 46.9674 43.0529 45.1828 44.7299C43.9559 45.8811 42.4701 46.634 40.8648 46.9447C39.9287 47.124 39.2515 47.9445 39.2515 48.9006C39.2515 50.1354 40.3669 51.0954 41.5778 50.8684C43.948 50.4222 46.1428 49.3069 47.9433 47.598C50.5445 45.1362 51.9267 41.6468 51.9267 38.0657V30.063L43.6532 38.3365L43.6572 38.3405Z" fill="#CCD2D8"/>
</svg>
