<svg width="68" height="68" viewBox="0 0 68 68" fill="none" xmlns="http://www.w3.org/2000/svg">
<path d="M51.9814 35.7967C49.9898 35.7967 48.0387 35.2411 46.3469 34.1906L44.6527 33.1389C43.1286 32.1942 41.3714 31.6934 39.5785 31.6934H37.0039C35.2157 31.6934 33.4645 32.193 31.9452 33.1353L30.2439 34.1906C28.5521 35.2399 26.6009 35.7967 24.6093 35.7967H19.1829V42.4949H21.3256C28.6794 42.4949 34.6411 48.4567 34.6411 55.8104V59.3915H41.9508V55.8104C41.9508 48.4567 47.9126 42.4949 55.2663 42.4949H57.409V35.7967H51.9838H51.9814Z" fill="#CCD2D8"/>
<path d="M38.2957 44.6535C40.6389 44.6535 42.5385 42.7539 42.5385 40.4107C42.5385 38.0675 40.6389 36.168 38.2957 36.168C35.9525 36.168 34.053 38.0675 34.053 40.4107C34.053 42.7539 35.9525 44.6535 38.2957 44.6535Z" fill="white"/>
<path d="M38.2946 16.1152C25.6371 16.1152 15.3768 26.3755 15.3768 39.033C15.3768 51.6906 25.6371 61.9508 38.2946 61.9508C50.9522 61.9508 61.2124 51.6906 61.2124 39.033C61.2124 26.3755 50.9522 16.1152 38.2946 16.1152ZM38.2946 56.6482C28.5662 56.6482 20.6795 48.7615 20.6795 39.033C20.6795 29.3046 28.5662 21.4179 38.2946 21.4179C48.0231 21.4179 55.9098 29.3046 55.9098 39.033C55.9098 48.7615 48.0231 56.6482 38.2946 56.6482Z" fill="#CCD2D8"/>
<path d="M19.8705 23.5432L18.677 10.9534V7.04932C18.677 6.49703 18.2293 6.04932 17.677 6.04932H13.0747C12.5224 6.04932 12.0747 6.49703 12.0747 7.04932V10.9534L10.8811 23.5432C10.8302 24.0841 10.646 24.6036 10.3468 25.0557L7.78216 28.9273C7.13278 29.9071 6.78754 31.0547 6.78754 32.2285V59.4549C6.78754 60.8325 7.90546 61.9505 9.28314 61.9505H21.4685C22.8462 61.9505 23.9641 60.8325 23.9641 59.4549V32.2285C23.9641 31.0547 23.6189 29.9055 22.9695 28.9273L20.4048 25.0557C20.1056 24.6036 19.9215 24.0841 19.8705 23.5432Z" fill="#008F7F"/>
<path d="M19.8563 37.8101H10.8973C10.3451 37.8101 9.89734 38.2578 9.89734 38.8101V53.0599C9.89734 53.6122 10.3451 54.0599 10.8973 54.0599H19.8563C20.4086 54.0599 20.8563 53.6122 20.8563 53.0599V38.8101C20.8563 38.2578 20.4086 37.8101 19.8563 37.8101Z" fill="white"/>
</svg>
