<svg width="68" height="68" viewBox="0 0 68 68" fill="none" xmlns="http://www.w3.org/2000/svg">
<path fill-rule="evenodd" clip-rule="evenodd" d="M36.1068 3.26105C36.1068 2.09752 35.1635 1.1543 34 1.1543C32.8365 1.1543 31.8933 2.09752 31.8933 3.26105V6.02024C21.9616 7.01166 14.0383 14.935 13.0468 24.8666H10.2877C9.12414 24.8666 8.18091 25.8099 8.18091 26.9734C8.18091 28.1369 9.12414 29.0802 10.2877 29.0802H13.0468C14.0382 39.0119 21.9616 46.9353 31.8933 47.9267V50.6856C31.8933 51.8492 32.8365 52.7924 34 52.7924C35.1635 52.7924 36.1068 51.8492 36.1068 50.6856V47.9267C46.0385 46.9353 53.9619 39.0119 54.9533 29.0802H57.7122C58.8758 29.0802 59.819 28.1369 59.819 26.9734C59.819 25.8099 58.8758 24.8666 57.7122 24.8666H54.9533C53.9619 14.9349 46.0385 7.01159 36.1068 6.02022V3.26105ZM17.2868 29.0802C18.2399 36.6881 24.2853 42.7336 31.8933 43.6867V41.1631C31.8933 39.9996 32.8365 39.0563 34 39.0563C35.1635 39.0563 36.1068 39.9996 36.1068 41.1631V43.6868C43.7148 42.7337 49.7603 36.6882 50.7134 29.0802H48.1897C47.0262 29.0802 46.0829 28.1369 46.0829 26.9734C46.0829 25.8099 47.0262 24.8666 48.1897 24.8666H50.7134C49.7602 17.2587 43.7148 11.2132 36.1068 10.2602V12.7836C36.1068 13.9471 35.1635 14.8903 34 14.8903C32.8365 14.8903 31.8933 13.9471 31.8933 12.7836V10.2602C24.2853 11.2133 18.2399 17.2587 17.2868 24.8666H19.8102C20.9737 24.8666 21.917 25.8099 21.917 26.9734C21.917 28.1369 20.9737 29.0802 19.8102 29.0802H17.2868Z" fill="#CCD2D8"/>
<path d="M51.529 52.3408C48.7158 46.0645 41.1821 46.0645 41.1821 46.0645L34.0053 47.5563L26.8285 46.0645C26.8285 46.0645 19.3001 46.0645 16.4816 52.3408C13.8443 58.2229 17.0677 62.0857 34 62.0857C50.9322 62.0857 54.1557 58.2229 51.5183 52.3408H51.529Z" fill="#008F7F"/>
<path d="M44.347 32.8243C44.347 22.5253 37.5539 21.3691 34.1546 21.3691C30.7554 21.3691 23.9622 22.5253 23.9622 32.8243C23.9622 39.1912 25.3795 43.0806 22.886 47.2577L34.1546 52.2181L45.4233 47.2577C42.9298 43.0806 44.347 39.1965 44.347 32.8243V32.8243Z" fill="#008F7F"/>
<path d="M40.7983 37.4843C41.2867 37.2949 42.0393 36.7018 42.0891 35.1568C42.1489 33.243 41.1073 33.6666 41.1073 33.6666L40.6538 34.1451C40.3497 34.464 39.8563 34.5189 39.4925 34.2647L32.7792 29.6346C31.0847 28.4684 28.7372 29.0914 27.8651 30.9554C27.5162 31.7129 27.2869 32.61 27.2122 33.6566C26.8035 33.6566 26.1855 33.861 26.2253 35.1518C26.2752 36.7018 27.0228 37.2899 27.5162 37.4793C28.0794 39.9164 29.3004 41.6658 30.6361 42.7822C30.5663 44.7708 27.7504 45.7875 27.7504 45.7875C28.8419 48.3741 31.9668 48.8675 34.1547 48.8675C36.3427 48.8675 39.4676 48.3791 40.5591 45.7875C40.5591 45.7875 37.7432 44.7708 37.6734 42.7822C39.0091 41.6658 40.2301 39.9214 40.7933 37.4843H40.7983Z" fill="white"/>
</svg>
