<svg width="68" height="68" viewBox="0 0 68 68" fill="none" xmlns="http://www.w3.org/2000/svg">
<g clip-path="url(#clip0_2187_56157)">
<path d="M46.0349 12.0705C46.8352 11.015 48.4219 11.015 49.2222 12.0705L52.0816 15.8415C52.5182 16.4174 53.2316 16.7129 53.9476 16.6145L58.636 15.9698C59.9482 15.7894 61.0702 16.9114 60.8898 18.2236L60.2452 22.912C60.1467 23.628 60.4422 24.3414 61.0181 24.7781L64.7891 27.6374C65.8446 28.4377 65.8446 30.0244 64.7891 30.8247L61.0181 33.6841C60.4422 34.1208 60.1467 34.8342 60.2452 35.5502L60.8898 40.2385C61.0702 41.5508 59.9482 42.6727 58.636 42.4923L53.9476 41.8477C53.2316 41.7493 52.5182 42.0448 52.0816 42.6207L49.2222 46.3916C48.4219 47.4471 46.8352 47.4471 46.0349 46.3916L43.1755 42.6207C42.7388 42.0448 42.0254 41.7493 41.3094 41.8477L36.6211 42.4923C35.3088 42.6727 34.1869 41.5508 34.3673 40.2385L35.0119 35.5502C35.1104 34.8342 34.8149 34.1208 34.239 33.6841L30.468 30.8247C29.4125 30.0244 29.4125 28.4377 30.468 27.6374L34.239 24.7781C34.8149 24.3414 35.1104 23.628 35.0119 22.912L34.3673 18.2236C34.1869 16.9114 35.3088 15.7894 36.6211 15.9698L41.3094 16.6145C42.0254 16.7129 42.7388 16.4174 43.1755 15.8415L46.0349 12.0705Z" fill="#CCD2D8"/>
<path fill-rule="evenodd" clip-rule="evenodd" d="M48.1018 27.9379L50.4651 20.8838L42.7057 30.4067H47.0087L44.6454 37.4609L52.4049 27.9379H48.1018Z" fill="white"/>
<path fill-rule="evenodd" clip-rule="evenodd" d="M45.2757 37.5072C45.0132 37.2775 44.6762 37.1509 44.3274 37.1509H10.1295C9.78075 37.1509 9.4438 37.2775 9.1813 37.5072L4.32024 41.7606C4.00774 42.034 3.82849 42.4291 3.82849 42.8443V52.9909C3.82849 53.7862 4.4732 54.4309 5.26849 54.4309H49.1885C49.9838 54.4309 50.6285 53.7862 50.6285 52.9909V42.8443C50.6285 42.4291 50.4492 42.034 50.1367 41.7606L45.2757 37.5072Z" fill="#008F7F"/>
<path d="M13.5564 27.9411C13.7839 27.4129 14.3039 27.0708 14.8789 27.0708H39.5794C40.1545 27.0708 40.6744 27.413 40.9019 27.9411L44.8692 37.1508H9.58917L13.5564 27.9411Z" fill="#008F7F"/>
<path d="M15.7173 30.0705C15.952 29.5589 16.4632 29.231 17.0261 29.231H37.4322C37.9951 29.231 38.5064 29.5589 38.7411 30.0705L41.9892 37.151H12.4692L15.7173 30.0705Z" fill="white"/>
<path d="M3.82919 52.271H12.4692V56.591C12.4692 57.3863 11.8245 58.031 11.0292 58.031H5.26919C4.4739 58.031 3.82919 57.3863 3.82919 56.591V52.271Z" fill="#008F7F"/>
<path d="M41.9892 52.271H50.6292V56.591C50.6292 57.3863 49.9845 58.031 49.1892 58.031H43.4292C42.6339 58.031 41.9892 57.3863 41.9892 56.591V52.271Z" fill="#008F7F"/>
<path d="M3.69285 34.0962C3.77298 33.7756 4.06097 33.5508 4.39135 33.5508H10.7275C11.2254 33.5508 11.573 34.044 11.4056 34.5129L10.1825 37.9375C10.0523 38.3021 9.65692 38.4985 9.28765 38.3819L3.75518 36.6348C3.39222 36.5202 3.18118 36.1428 3.27349 35.7736L3.69285 34.0962Z" fill="#008F7F"/>
<path d="M50.7655 34.0962C50.6854 33.7756 50.3974 33.5508 50.067 33.5508H43.7309C43.233 33.5508 42.8853 34.044 43.0528 34.5129L44.2759 37.9375C44.4061 38.3021 44.8015 38.4985 45.1707 38.3819L50.7032 36.6348C51.0662 36.5202 51.2772 36.1428 51.1849 35.7736L50.7655 34.0962Z" fill="#008F7F"/>
<path d="M6.7092 43.9722C6.7092 43.0554 7.5545 42.3721 8.45092 42.5641L15.6509 44.107C16.3149 44.2493 16.7892 44.836 16.7892 45.515V45.7909C16.7892 46.5862 16.1445 47.2309 15.3492 47.2309H8.1492C7.35391 47.2309 6.7092 46.5862 6.7092 45.7909V43.9722Z" fill="white"/>
<path d="M47.7492 43.9722C47.7492 43.0554 46.9039 42.3721 46.0075 42.5641L38.8075 44.107C38.1435 44.2493 37.6692 44.836 37.6692 45.515V45.7909C37.6692 46.5862 38.3139 47.2309 39.1092 47.2309H46.3092C47.1045 47.2309 47.7492 46.5862 47.7492 45.7909V43.9722Z" fill="white"/>
</g>
<defs>
<clipPath id="clip0_2187_56157">
<rect width="68" height="68" fill="white"/>
</clipPath>
</defs>
</svg>
