<svg width="68" height="68" viewBox="0 0 68 68" fill="none" xmlns="http://www.w3.org/2000/svg">
<path d="M23.6812 7.53438C24.4815 6.47891 26.0682 6.47891 26.8685 7.53438L29.7279 11.3054C30.1645 11.8813 30.8779 12.1768 31.5939 12.0783L36.2823 11.4337C37.5945 11.2533 38.7165 12.3753 38.5361 13.6875L37.8915 18.3758C37.793 19.0918 38.0885 19.8052 38.6644 20.2419L42.4354 23.1013C43.4909 23.9016 43.4909 25.4883 42.4354 26.2886L38.6644 29.148C38.0885 29.5846 37.793 30.298 37.8915 31.014L38.5361 35.7024C38.7165 37.0146 37.5945 38.1366 36.2823 37.9562L31.5939 37.3116C30.8779 37.2131 30.1645 37.5086 29.7279 38.0845L26.8685 41.8555C26.0682 42.911 24.4815 42.911 23.6812 41.8555L20.8218 38.0845C20.3851 37.5086 19.6717 37.2131 18.9557 37.3116L14.2674 37.9562C12.9551 38.1366 11.8332 37.0146 12.0136 35.7024L12.6582 31.014C12.7567 30.298 12.4612 29.5846 11.8853 29.148L8.11427 26.2886C7.05881 25.4883 7.05881 23.9016 8.11428 23.1013L11.8853 20.2419C12.4612 19.8052 12.7567 19.0918 12.6582 18.3758L12.0136 13.6875C11.8332 12.3753 12.9551 11.2533 14.2674 11.4337L18.9557 12.0783C19.6717 12.1768 20.3851 11.8813 20.8218 11.3054L23.6812 7.53438Z" fill="#CCD2D8"/>
<path fill-rule="evenodd" clip-rule="evenodd" d="M25.7481 23.4018L28.1114 16.3477L20.352 25.8706H24.655L22.2917 32.9247L30.0512 23.4018H25.7481Z" fill="white"/>
<path d="M58.3749 42.9363L59.4879 31.8581C59.6638 30.0935 58.4816 28.4816 56.7458 28.1212L55.3473 27.83L54.3871 26.3767C53.5711 25.1426 52.0602 24.563 50.63 24.935L49.0153 25.3531L47.8619 24.0988C46.7143 22.8445 44.8545 22.5619 43.3868 23.4125L42.0518 24.1853L40.8321 23.45C39.6124 22.7147 38.0813 22.7263 36.876 23.4817C35.9158 24.0815 35.2757 25.0792 35.1315 26.2008L34.6298 30.0762L31.1177 31.8437C29.9586 32.4291 29.3502 33.7237 29.6414 34.9809L31.2042 41.757C31.6137 43.5303 32.6315 45.1076 34.079 46.209L37.767 49.0175V55.4871C37.767 57.144 39.1101 58.4871 40.767 58.4871H52.9644C54.6212 58.4871 55.9644 57.144 55.9644 55.4871V49.6692L57.2648 46.927C57.8617 45.6698 58.2365 44.3204 58.3749 42.9335V42.9363Z" fill="#008F7F"/>
</svg>
