<svg width="20" height="20" viewBox="0 0 20 20" fill="none" xmlns="http://www.w3.org/2000/svg">
<path d="M10.0833 14.8542C10.3055 14.8542 10.4965 14.7744 10.6562 14.6147C10.816 14.4549 10.8958 14.257 10.8958 14.0209C10.8958 13.7848 10.816 13.5869 10.6562 13.4272C10.4965 13.2674 10.2986 13.1876 10.0625 13.1876C9.84027 13.1876 9.64929 13.2674 9.48957 13.4272C9.32985 13.5869 9.24999 13.7848 9.24999 14.0209C9.24999 14.257 9.32985 14.4549 9.48957 14.6147C9.64929 14.7744 9.84721 14.8542 10.0833 14.8542ZM9.31249 11.8126H10.6042C10.6042 11.4515 10.6493 11.1216 10.7396 10.823C10.8299 10.5244 11.1042 10.1876 11.5625 9.81258C11.993 9.46536 12.2986 9.11466 12.4792 8.7605C12.6597 8.40633 12.75 8.02091 12.75 7.60425C12.75 6.85425 12.5139 6.25703 12.0417 5.81258C11.5694 5.36814 10.9305 5.14591 10.125 5.14591C9.44443 5.14591 8.83679 5.31953 8.30207 5.66675C7.76735 6.01397 7.38193 6.49314 7.14582 7.10425L8.31249 7.56258C8.47916 7.17369 8.71179 6.87161 9.01041 6.65633C9.30902 6.44105 9.65971 6.33341 10.0625 6.33341C10.493 6.33341 10.8472 6.45494 11.125 6.698C11.4028 6.94105 11.5417 7.25703 11.5417 7.64592C11.5417 7.93758 11.4549 8.21883 11.2812 8.48966C11.1076 8.7605 10.8542 9.02786 10.5208 9.29175C10.118 9.65286 9.81596 10.014 9.61457 10.3751C9.41318 10.7362 9.31249 11.2154 9.31249 11.8126ZM9.99999 18.4584C8.84721 18.4584 7.75346 18.2362 6.71874 17.7917C5.68402 17.3473 4.78471 16.7431 4.02082 15.9792C3.25693 15.2154 2.65277 14.3195 2.20832 13.2917C1.76388 12.264 1.54166 11.1667 1.54166 10.0001C1.54166 8.83341 1.76388 7.73272 2.20832 6.698C2.65277 5.66328 3.25693 4.76744 4.02082 4.0105C4.78471 3.25355 5.68055 2.65286 6.70832 2.20841C7.7361 1.76397 8.83332 1.54175 9.99999 1.54175C11.1667 1.54175 12.2674 1.76397 13.3021 2.20841C14.3368 2.65286 15.2326 3.25355 15.9896 4.0105C16.7465 4.76744 17.3472 5.6598 17.7917 6.68758C18.2361 7.71536 18.4583 8.81953 18.4583 10.0001C18.4583 11.1667 18.2361 12.264 17.7917 13.2917C17.3472 14.3195 16.7465 15.2154 15.9896 15.9792C15.2326 16.7431 14.3403 17.3473 13.3125 17.7917C12.2847 18.2362 11.1805 18.4584 9.99999 18.4584ZM9.99999 17.0417C11.9583 17.0417 13.6215 16.3542 14.9896 14.9792C16.3576 13.6042 17.0417 11.9445 17.0417 10.0001C17.0417 8.04175 16.3576 6.37855 14.9896 5.0105C13.6215 3.64244 11.9583 2.95841 9.99999 2.95841C8.05554 2.95841 6.39582 3.64244 5.02082 5.0105C3.64582 6.37855 2.95832 8.04175 2.95832 10.0001C2.95832 11.9445 3.64582 13.6042 5.02082 14.9792C6.39582 16.3542 8.05554 17.0417 9.99999 17.0417Z" fill="#888E94"/>
</svg>
