<svg width="20" height="20" viewBox="0 0 20 20" fill="none" xmlns="http://www.w3.org/2000/svg">
<g clip-path="url(#clip0_2486_111763)">
<path d="M13.334 9.16675C14.7173 9.16675 15.8257 8.05008 15.8257 6.66675C15.8257 5.28341 14.7173 4.16675 13.334 4.16675C11.9507 4.16675 10.834 5.28341 10.834 6.66675C10.834 8.05008 11.9507 9.16675 13.334 9.16675ZM6.66732 9.16675C8.05065 9.16675 9.15898 8.05008 9.15898 6.66675C9.15898 5.28341 8.05065 4.16675 6.66732 4.16675C5.28398 4.16675 4.16732 5.28341 4.16732 6.66675C4.16732 8.05008 5.28398 9.16675 6.66732 9.16675ZM6.66732 10.8334C4.72565 10.8334 0.833984 11.8084 0.833984 13.7501V15.8334H12.5007V13.7501C12.5007 11.8084 8.60898 10.8334 6.66732 10.8334ZM13.334 10.8334C13.0923 10.8334 12.8173 10.8501 12.5257 10.8751C13.4923 11.5751 14.1673 12.5167 14.1673 13.7501V15.8334H19.1673V13.7501C19.1673 11.8084 15.2757 10.8334 13.334 10.8334Z" fill="white"/>
</g>
<defs>
<clipPath id="clip0_2486_111763">
<rect width="20" height="20" fill="white"/>
</clipPath>
</defs>
</svg>
