<svg width="18" height="18" viewBox="0 0 18 18" fill="none" xmlns="http://www.w3.org/2000/svg">
<path d="M12.5025 9.8475C13.53 10.545 14.25 11.49 14.25 12.75V15H17.25V12.75C17.25 11.115 14.5725 10.1475 12.5025 9.8475Z" fill="#646A70"/>
<path d="M11.25 9C12.9075 9 14.25 7.6575 14.25 6C14.25 4.3425 12.9075 3 11.25 3C10.8975 3 10.5675 3.075 10.2525 3.18C10.875 3.9525 11.25 4.935 11.25 6C11.25 7.065 10.875 8.0475 10.2525 8.82C10.5675 8.925 10.8975 9 11.25 9Z" fill="#646A70"/>
<path d="M6.75 9C8.4075 9 9.75 7.6575 9.75 6C9.75 4.3425 8.4075 3 6.75 3C5.0925 3 3.75 4.3425 3.75 6C3.75 7.6575 5.0925 9 6.75 9ZM6.75 4.5C7.575 4.5 8.25 5.175 8.25 6C8.25 6.825 7.575 7.5 6.75 7.5C5.925 7.5 5.25 6.825 5.25 6C5.25 5.175 5.925 4.5 6.75 4.5Z" fill="#646A70"/>
<path d="M6.75 9.75C4.7475 9.75 0.75 10.755 0.75 12.75V15H12.75V12.75C12.75 10.755 8.7525 9.75 6.75 9.75ZM11.25 13.5H2.25V12.7575C2.4 12.2175 4.725 11.25 6.75 11.25C8.775 11.25 11.1 12.2175 11.25 12.75V13.5Z" fill="#646A70"/>
</svg>
