<svg width="20" height="20" viewBox="0 0 20 20" fill="none" xmlns="http://www.w3.org/2000/svg">
<path d="M13.7125 9.5884C13.7125 10.5902 13.5504 11.4834 13.2263 12.268C12.9058 13.0525 12.4546 13.6989 11.8727 14.2072L13.4362 16.2238H11.4528L10.5191 15.0304C9.89662 15.2772 9.22995 15.4006 8.51908 15.4006C7.52461 15.4006 6.63326 15.1685 5.84505 14.7044C5.06052 14.2367 4.44358 13.5645 3.99422 12.6878C3.54855 11.8112 3.32571 10.7781 3.32571 9.5884C3.32571 8.39503 3.54855 7.36004 3.99422 6.48343C4.43989 5.60682 5.055 4.93647 5.83953 4.47238C6.62774 4.00829 7.52093 3.77625 8.51908 3.77625C9.50988 3.77625 10.3975 4.00829 11.1821 4.47238C11.9703 4.93647 12.5891 5.60866 13.0384 6.48895C13.4878 7.36556 13.7125 8.39871 13.7125 9.5884ZM5.36991 9.5884C5.36991 10.4319 5.50251 11.1538 5.7677 11.7541C6.0329 12.3508 6.40122 12.8039 6.87268 13.1133C7.34781 13.419 7.89662 13.5718 8.51908 13.5718C8.82111 13.5718 9.10104 13.5368 9.35886 13.4669L7.81743 11.4503H9.66826L10.6406 12.7099C10.9684 12.3674 11.2207 11.9328 11.3975 11.4061C11.5743 10.8794 11.6627 10.2735 11.6627 9.5884C11.6627 8.74494 11.5301 8.02486 11.2649 7.42818C11.0034 6.82781 10.6351 6.37477 10.16 6.06906C9.68483 5.75967 9.13787 5.60497 8.51908 5.60497C7.89662 5.60497 7.34781 5.75967 6.87268 6.06906C6.40122 6.37477 6.0329 6.82781 5.7677 7.42818C5.50251 8.02486 5.36991 8.74494 5.36991 9.5884Z" fill="#00A293"/>
<path d="M15.4644 15.3674C15.2434 15.3674 15.0389 15.314 14.8511 15.2072C14.6669 15.0967 14.5196 14.9494 14.4091 14.7652C14.3023 14.5774 14.2507 14.3748 14.2544 14.1575C14.2507 13.9401 14.3023 13.7394 14.4091 13.5553C14.5196 13.3711 14.6669 13.2256 14.8511 13.1188C15.0389 13.012 15.2434 12.9586 15.4644 12.9586C15.678 12.9586 15.8769 13.012 16.061 13.1188C16.2489 13.2256 16.3981 13.3711 16.5086 13.5553C16.619 13.7394 16.6743 13.9401 16.6743 14.1575C16.6743 14.3748 16.619 14.5774 16.5086 14.7652C16.3981 14.9494 16.2489 15.0967 16.061 15.2072C15.8769 15.314 15.678 15.3674 15.4644 15.3674Z" fill="#00A293"/>
</svg>
