<svg width="28" height="28" viewBox="0 0 28 28" fill="none" xmlns="http://www.w3.org/2000/svg">
<path d="M11.3672 10.7422C9.57031 11.0807 8.30729 12.3828 7.57812 14.6484C7.21354 15.7682 7.03125 16.875 7.03125 17.9688C7.03125 18.099 7.03125 18.2161 7.03125 18.3203C7.05729 18.3984 7.08333 18.5938 7.10938 18.9062H11.3672V27.4219H3.04688V19.5703C3.04688 15.7161 3.8151 12.7474 5.35156 10.6641C6.88802 8.58073 8.89323 7.38281 11.3672 7.07031V10.7422ZM24.5312 10.7422C23.099 10.9766 22.0052 11.7839 21.25 13.1641C20.5208 14.5443 20.1562 16.1328 20.1562 17.9297C20.1562 18.0859 20.1562 18.2422 20.1562 18.3984C20.1823 18.5547 20.2214 18.724 20.2734 18.9062H24.5312V27.4219H16.1719V19.5703C16.1719 16.4714 16.8229 13.7109 18.125 11.2891C19.4271 8.84115 21.5625 7.4349 24.5312 7.07031V10.7422Z" fill="white"/>
</svg>
