<svg width="18" height="18" viewBox="0 0 18 18" fill="none" xmlns="http://www.w3.org/2000/svg">
<path d="M0.914062 11.1406C0.914062 12.3852 2.32031 12.8281 3.16406 12.8281C4.00781 12.8281 5.41406 12.3852 5.41406 11.1406L3.16406 5.51562L0.914062 11.1406Z" fill="#646A70"/>
<path d="M12.5859 8.87109C12.5859 10.1156 13.9922 10.5586 14.8359 10.5586C15.6797 10.5586 17.0859 10.1156 17.0859 8.87109L14.8359 3.24609L12.5859 8.87109Z" fill="#646A70"/>
<rect x="6.12842" y="14.4922" width="5.98926" height="1.53125" rx="0.2" fill="#646A70"/>
<path d="M8.33984 14.4922L8.33984 2.17656C8.33984 2.0661 8.42939 1.97656 8.53984 1.97656L9.67109 1.97656C9.78155 1.97656 9.87109 2.06611 9.87109 2.17656L9.87109 14.4922L8.33984 14.4922Z" fill="#646A70"/>
<rect x="3.13171" y="5.40625" width="11.911" height="1.53125" rx="0.2" transform="rotate(-11.1246 3.13171 5.40625)" fill="#646A70"/>
</svg>
