<svg width="240" height="280" viewBox="0 0 240 280" fill="none" xmlns="http://www.w3.org/2000/svg">
<path d="M0 260C0 248.954 8.95431 240 20 240H240V264C240 272.837 232.837 280 224 280H20C8.9543 280 0 271.046 0 260Z" fill="#006C63"/>
<mask id="mask0_1099_34777" style="mask-type:alpha" maskUnits="userSpaceOnUse" x="0" y="0" width="240" height="240">
<rect width="240" height="240" fill="#D9D9D9"/>
</mask>
<g mask="url(#mask0_1099_34777)">
<circle cx="60.4958" cy="180.496" r="59.5041" fill="#006C63"/>
<path fill-rule="evenodd" clip-rule="evenodd" d="M122.995 238C187.798 236.93 240 184.066 240 119.008C240 53.2846 186.723 0.00448482 121 0V238H122.995Z" fill="#008F7F"/>
<path fill-rule="evenodd" clip-rule="evenodd" d="M140.3 55.8341C140.3 63.1271 134.374 69.0393 127.063 69.0393C119.753 69.0393 113.826 63.1271 113.826 55.8341C113.826 48.5411 119.753 42.6289 127.063 42.6289C134.374 42.6289 140.3 48.5411 140.3 55.8341ZM113.147 69.0475H140.989C142.711 69.0475 144.108 70.4405 144.108 72.1589V79.494H219.006V91.2541H208.244V101.187L238.149 157.143L237.993 157.226C237.872 174.965 223.417 189.31 205.607 189.31C187.783 189.31 173.322 174.945 173.22 157.189L173.086 157.115L204.106 101.169V91.2541H144.108V144.636C144.108 146.355 142.711 147.748 140.989 147.748H132.96V214.864H157.314C160.847 214.864 163.715 217.725 163.715 221.249V227.479H170.47C174.187 227.479 177.203 230.487 177.203 234.196V240.094H77.0488V234.196C77.0488 230.487 80.0643 227.479 83.7819 227.479H83.7893H90.5301V221.249C90.5301 217.725 93.3977 214.864 96.9306 214.864H121.172V147.748H113.147C111.425 147.748 110.028 146.355 110.028 144.636V91.2541H51.1662V101.187L81.0628 157.143L80.9137 157.222C80.7944 174.963 66.3395 189.31 48.5275 189.31C30.7041 189.31 16.2348 174.952 16.1337 157.188L16 157.114L47.0273 101.169V91.2541H35.1278V79.494H110.028V72.1589C110.028 70.4405 111.425 69.0475 113.147 69.0475ZM76.2969 157.001H20.7931L49.0626 106.028L76.2969 157.001ZM177.879 157.001H233.382L206.141 106.028L177.879 157.001Z" fill="#0CA691"/>
</g>
</svg>
