<svg width="240" height="280" viewBox="0 0 240 280" fill="none" xmlns="http://www.w3.org/2000/svg">
<path d="M0 159H120V279H16C7.16344 279 0 271.837 0 263V159Z" fill="#006C63"/>
<circle cx="180" cy="220" r="60" fill="#006C63"/>
<path fill-rule="evenodd" clip-rule="evenodd" d="M240 159C240 92.7258 186.274 39 120 39C53.7258 39 -2.89694e-06 92.7258 0 159L240 159Z" fill="#008F7F"/>
<path fill-rule="evenodd" clip-rule="evenodd" d="M176.222 0C167.71 22.78 145.749 39 120 39C94.2505 39 72.2898 22.78 63.7773 0H176.222Z" fill="#008F7F"/>
<path fill-rule="evenodd" clip-rule="evenodd" d="M159.285 79L80.7148 79C76.447 79 73 82.3973 73 86.6035L73 126.293C73 130.499 76.447 133.896 80.7148 133.896L153.868 133.896L167 147L167 86.6035C167 82.3973 163.553 79 159.285 79ZM134.773 106.446C134.773 103.736 137.003 101.539 139.752 101.539C142.502 101.539 144.731 103.736 144.731 106.446C144.731 109.157 142.502 111.354 139.752 111.354C137.003 111.354 134.773 109.157 134.773 106.446ZM120 101.539C117.25 101.539 115.021 103.736 115.021 106.446C115.021 109.157 117.25 111.354 120 111.354C122.75 111.354 124.979 109.157 124.979 106.446C124.979 103.736 122.75 101.539 120 101.539ZM95.2692 106.446C95.2692 103.736 97.4984 101.539 100.248 101.539C102.998 101.539 105.227 103.736 105.227 106.446C105.227 109.157 102.998 111.354 100.248 111.354C97.4984 111.354 95.2692 109.156 95.2692 106.446Z" fill="#09AD97"/>
</svg>
