<svg width="33" height="32" viewBox="0 0 33 32" fill="none" xmlns="http://www.w3.org/2000/svg">
  <path d="M26.2763 14.9958C25.7615 10.6117 22.0373 7.3756 17.7074 7.33334C17.6754 7.33304 17.6432 7.33364 17.6112 7.33364C17.2774 7.33394 16.94 7.35282 16.6002 7.39209C15.3717 7.53448 14.2331 7.92449 13.2279 8.50515L13.2276 8.50455C13.2052 8.51744 13.1835 8.53063 13.1615 8.54352C13.1422 8.55491 13.1232 8.5663 13.1042 8.57739C8.11551 11.5299 6.33594 18.344 6.33594 22.4922L10.3535 20.1882C11.7691 22.8682 14.4854 24.6338 17.5149 24.6665C17.5469 24.6668 17.5792 24.6662 17.6112 24.6662C17.9449 24.6659 18.2823 24.647 18.6221 24.6077C23.4077 24.0535 26.8346 19.7499 26.2763 14.9958Z" fill="#0064FF"/>
</svg>
