<svg width="20" height="20" viewBox="0 0 20 20" fill="none" xmlns="http://www.w3.org/2000/svg">
  <path d="M15 3.3335H4.99996C3.15829 3.3335 1.66663 4.82516 1.66663 6.66683V13.3335C1.66663 15.1752 3.15829 16.6668 4.99996 16.6668H15C16.8416 16.6668 18.3333 15.1752 18.3333 13.3335V6.66683C18.3333 4.82516 16.8416 3.3335 15 3.3335ZM13.45 11.4752C13.25 11.6418 12.975 11.7085 12.7166 11.6418L3.45829 9.37516C3.70829 8.76683 4.29996 8.3335 4.99996 8.3335H15C15.5583 8.3335 16.05 8.61683 16.3583 9.0335L13.45 11.4752ZM4.99996 5.00016H15C15.9166 5.00016 16.6666 5.75016 16.6666 6.66683V7.12516C16.175 6.84183 15.6083 6.66683 15 6.66683H4.99996C4.39163 6.66683 3.82496 6.84183 3.33329 7.12516V6.66683C3.33329 5.75016 4.08329 5.00016 4.99996 5.00016Z" fill="#005A54"/>
</svg>
