<svg width="24" height="24" viewBox="0 0 24 24" fill="none" xmlns="http://www.w3.org/2000/svg">
<path d="M17 23C18.6667 23 20.0833 22.4167 21.25 21.25C22.4167 20.0833 23 18.6667 23 17H21.5C21.5 18.25 21.0625 19.3125 20.1875 20.1875C19.3125 21.0625 18.25 21.5 17 21.5V23ZM1 7H2.5C2.5 5.75 2.9375 4.6875 3.8125 3.8125C4.6875 2.9375 5.75 2.5 7 2.5V1C5.33333 1 3.91667 1.58333 2.75 2.75C1.58333 3.91667 1 5.33333 1 7ZM3.525 20.475C1.90833 18.8583 1.1 16.9167 1.1 14.65C1.1 12.3833 1.90833 10.4417 3.525 8.825L7.225 5.1C7.65833 4.66667 8.1875 4.45 8.8125 4.45C9.4375 4.45 9.96667 4.66667 10.4 5.1C10.4667 5.15 10.5417 5.23333 10.625 5.35L10.875 5.7L13.775 2.8C14.2083 2.36667 14.7375 2.15 15.3625 2.15C15.9875 2.15 16.5167 2.36667 16.95 2.8C17.05 2.91667 17.1375 3.03333 17.2125 3.15C17.2875 3.26667 17.3417 3.36667 17.375 3.45C17.7917 3.03333 18.3042 2.83333 18.9125 2.85C19.5208 2.86667 20.0417 3.09167 20.475 3.525C20.8083 3.85833 21.0083 4.27083 21.075 4.7625C21.1417 5.25417 21.0667 5.74167 20.85 6.225C20.9833 6.275 21.1083 6.34167 21.225 6.425C21.3417 6.50833 21.45 6.6 21.55 6.7C21.9833 7.13333 22.2 7.6625 22.2 8.2875C22.2 8.9125 21.9833 9.44167 21.55 9.875L20.925 10.5C21.0417 10.55 21.1542 10.6167 21.2625 10.7C21.3708 10.7833 21.4667 10.8667 21.55 10.95C21.9833 11.3833 22.2042 11.9125 22.2125 12.5375C22.2208 13.1625 22 13.6917 21.55 14.125L15.175 20.475C13.5583 22.0917 11.6167 22.9 9.35 22.9C7.08333 22.9 5.14167 22.0917 3.525 20.475ZM4.575 19.425C5.24167 20.0917 5.9875 20.5875 6.8125 20.9125C7.6375 21.2375 8.48333 21.4 9.35 21.4C10.2167 21.4 11.0625 21.2375 11.8875 20.9125C12.7125 20.5875 13.4583 20.0917 14.125 19.425L20.475 13.05C20.625 12.9 20.7 12.7208 20.7 12.5125C20.7 12.3042 20.625 12.1333 20.475 12C20.325 11.85 20.15 11.775 19.95 11.775C19.75 11.775 19.575 11.85 19.425 12L15.9 15.525L14.825 14.475L20.475 8.825C20.625 8.675 20.7 8.49583 20.7 8.2875C20.7 8.07917 20.625 7.9 20.475 7.75C20.325 7.6 20.15 7.525 19.95 7.525C19.75 7.525 19.575 7.6 19.425 7.75L14.475 12.7L13.425 11.65L19.425 5.625C19.575 5.475 19.6458 5.29583 19.6375 5.0875C19.6292 4.87917 19.5583 4.70833 19.425 4.575C19.275 4.425 19.1 4.35 18.9 4.35C18.7 4.35 18.525 4.425 18.375 4.575L12.35 10.575L11.3 9.525L15.9 4.925C16.05 4.775 16.1208 4.59583 16.1125 4.3875C16.1042 4.17917 16.0333 4.00833 15.9 3.875C15.75 3.725 15.5708 3.65 15.3625 3.65C15.1542 3.65 14.975 3.725 14.825 3.875L8.225 10.475C8.575 11.3417 8.68333 12.225 8.55 13.125C8.41667 14.025 8.03333 14.825 7.4 15.525L6.35 14.475C6.88333 13.8583 7.15 13.15 7.15 12.35C7.15 11.55 6.88333 10.8417 6.35 10.225L9.35 7.225C9.5 7.075 9.57083 6.89583 9.5625 6.6875C9.55417 6.47917 9.48333 6.30833 9.35 6.175C9.2 6.025 9.025 5.95 8.825 5.95C8.625 5.95 8.45 6.025 8.3 6.175L4.575 9.875C3.90833 10.5417 3.4125 11.2875 3.0875 12.1125C2.7625 12.9375 2.6 13.7833 2.6 14.65C2.6 15.5167 2.7625 16.3625 3.0875 17.1875C3.4125 18.0125 3.90833 18.7583 4.575 19.425Z" fill="#09AD97"/>
</svg>
